<?xml version="1.0" standalone="no"?>
<!DOCTYPE svg PUBLIC "-//W3C//DTD SVG 20010904//EN"
 "http://www.w3.org/TR/2001/REC-SVG-20010904/DTD/svg10.dtd">
<svg version="1.0" xmlns="http://www.w3.org/2000/svg"
 width="898.000000pt" height="1263.000000pt" viewBox="0 0 898.000000 1263.000000"
 preserveAspectRatio="xMidYMid meet">

<g transform="translate(0.000000,1263.000000) scale(0.100000,-0.100000)"
fill="#000000" stroke="none">
<path d="M4726 12231 c-19 -7 -19 -8 0 -13 13 -3 21 0 21 8 0 8 -1 14 -1 13
-1 0 -10 -4 -20 -8z"/>
<path d="M4770 12213 c0 -5 14 -22 30 -38 18 -18 30 -39 30 -55 0 -14 5 -31
12 -38 7 -7 8 -12 2 -12 -6 0 -23 14 -37 30 -15 17 -34 30 -43 30 -9 0 -41 15
-72 33 -38 22 -71 34 -97 34 -22 1 -34 -1 -27 -4 6 -2 12 -12 12 -20 0 -11 -5
-13 -17 -7 -10 4 -35 9 -55 12 -28 3 -39 0 -44 -12 -7 -19 -34 -22 -34 -3 0 8
-3 8 -9 -2 -6 -9 -26 -14 -58 -13 -26 1 -72 -6 -101 -14 -38 -11 -57 -12 -66
-5 -10 8 -20 5 -38 -11 -41 -37 -67 -49 -93 -42 -19 5 -25 2 -25 -10 0 -9 -8
-16 -19 -16 -10 0 -25 -7 -32 -16 -20 -24 -56 -35 -83 -24 -18 6 -28 5 -36 -6
-7 -7 -23 -14 -36 -14 -13 0 -24 -3 -24 -7 0 -5 -18 -17 -41 -27 -28 -14 -45
-31 -55 -54 -8 -19 -24 -44 -37 -54 -21 -19 -21 -20 -2 -16 14 2 21 -3 23 -19
3 -18 -1 -21 -30 -20 -25 2 -33 6 -32 20 1 9 -2 17 -7 17 -13 0 -11 -34 4 -49
10 -10 7 -10 -15 -2 -26 10 -28 9 -28 -14 0 -17 -4 -23 -14 -19 -8 3 -17 1
-21 -5 -3 -6 1 -11 10 -11 9 0 15 -6 12 -12 -2 -7 -11 -12 -20 -10 -18 3 -52
-52 -42 -68 4 -6 -1 -17 -10 -26 -19 -19 -12 -32 8 -16 10 9 14 9 14 -1 0 -6
4 -20 8 -29 4 -11 3 -18 -4 -18 -6 0 -11 3 -11 8 0 4 -17 7 -38 6 -62 -2 -64
-3 -57 -24 5 -17 2 -20 -20 -20 -15 0 -24 -4 -20 -10 3 -5 -1 -10 -9 -10 -9 0
-16 -4 -16 -10 0 -5 5 -10 10 -10 21 0 9 -30 -12 -31 -18 -1 -16 -3 7 -8 45
-9 43 -47 -3 -74 -19 -12 -30 -23 -23 -25 7 -2 -4 -22 -27 -50 -47 -56 -73
-112 -97 -210 -10 -41 -21 -69 -25 -62 -4 6 -10 -35 -14 -92 -4 -57 -13 -121
-21 -143 -7 -23 -15 -68 -16 -100 -2 -33 -8 -75 -15 -95 -7 -20 -9 -52 -5 -75
l6 -40 12 55 c7 30 15 71 18 90 12 81 88 290 105 290 6 0 10 7 10 15 0 8 4 15
10 15 5 0 7 6 4 13 -2 7 11 29 30 47 19 19 33 37 30 41 -5 9 35 79 46 79 4 0
17 16 29 35 11 19 27 35 34 35 8 0 17 8 20 19 5 20 58 50 91 52 19 1 18 2 -4
9 -15 5 -19 8 -8 9 9 1 24 8 33 17 12 13 19 14 30 4 12 -10 16 -9 21 5 5 12
14 15 31 10 20 -5 26 -1 30 16 5 17 11 20 34 15 16 -3 29 -1 29 4 0 16 57 11
75 -6 11 -12 25 -14 51 -10 19 4 32 11 29 16 -8 13 28 -1 36 -13 9 -13 42 0
34 13 -3 5 -1 10 4 10 6 0 11 -8 12 -17 0 -11 3 -13 6 -5 2 6 20 12 39 12 19
0 44 5 57 12 48 25 57 28 57 21 0 -5 4 -14 9 -22 8 -12 12 -12 25 -2 12 10 19
11 30 2 8 -7 15 -8 18 -2 1 5 23 11 48 14 25 3 53 8 63 12 10 4 27 1 42 -9 13
-9 26 -12 29 -7 3 5 29 9 58 10 72 2 117 8 158 20 30 10 37 8 50 -8 8 -10 31
-22 50 -25 19 -3 42 -8 50 -10 8 -3 18 -5 21 -5 4 -1 9 -10 12 -21 3 -14 14
-20 32 -20 46 0 105 -42 105 -75 0 -8 5 -15 10 -15 6 0 35 -25 65 -55 29 -30
58 -55 64 -55 6 0 17 -13 26 -29 8 -16 24 -32 35 -36 11 -4 18 -10 16 -14 -4
-6 20 -19 69 -35 19 -7 19 -8 -5 -26 -23 -18 -24 -20 -9 -35 15 -15 18 -15 33
1 15 14 19 15 27 3 5 -8 9 -20 9 -26 0 -7 5 -13 10 -13 6 0 10 5 10 10 0 21
18 9 22 -15 3 -14 2 -25 -2 -25 -4 0 -11 -16 -14 -36 -4 -19 -10 -42 -13 -50
-3 -8 0 -14 5 -14 6 0 12 9 14 20 2 12 8 19 13 18 10 -3 12 -8 14 -41 0 -10 6
-15 11 -12 8 5 8 11 0 20 -8 10 -8 14 2 17 9 3 9 11 -2 37 -11 27 -11 34 0 41
7 5 10 17 7 30 -5 20 -3 21 21 16 15 -4 35 -8 45 -10 32 -4 50 -31 38 -54 -14
-26 1 -37 30 -22 11 7 21 10 22 8 1 -2 8 -13 15 -26 10 -18 10 -27 1 -38 -9
-11 -7 -14 11 -14 19 0 20 -2 10 -15 -10 -12 -9 -16 5 -21 10 -4 13 -9 6 -13
-7 -5 -8 -18 -2 -39 5 -17 6 -34 2 -37 -5 -2 -5 -23 -1 -45 4 -22 3 -40 -1
-40 -5 0 -9 -22 -9 -50 0 -38 -4 -50 -15 -50 -8 0 -15 -8 -15 -18 0 -10 -5
-23 -11 -29 -7 -7 -8 -22 0 -48 5 -20 7 -43 4 -51 -3 -8 -1 -20 5 -27 6 -7 12
-38 14 -70 2 -31 7 -57 11 -57 10 0 3 -213 -7 -229 -4 -6 -4 -16 -1 -21 4 -6
2 -16 -3 -23 -10 -11 -21 -58 -42 -167 -4 -25 -18 -92 -30 -150 -11 -58 -22
-116 -24 -130 -12 -90 -27 -156 -41 -177 -9 -13 -15 -32 -13 -41 4 -20 -21
-52 -40 -52 -10 0 -13 -8 -10 -25 3 -14 1 -25 -3 -25 -5 0 -9 -5 -9 -11 0 -6
8 -9 17 -7 9 2 16 8 15 13 0 6 7 19 17 30 10 11 41 58 70 105 29 47 64 100 77
119 23 32 91 90 107 91 10 0 71 43 75 53 6 13 32 7 32 -8 0 -12 7 -14 28 -9
39 10 49 20 68 72 10 26 26 60 36 77 11 18 14 32 7 35 -6 4 -1 17 11 32 11 15
20 29 20 34 0 9 59 174 71 196 5 10 9 26 9 35 1 10 11 47 24 83 13 36 33 90
44 120 24 68 48 221 37 246 -7 18 -8 35 -6 84 1 12 8 20 19 20 17 0 18 9 16
108 -4 152 -15 265 -28 282 -27 36 -34 57 -24 73 6 11 5 17 -2 17 -18 0 -35
47 -21 63 13 16 -1 67 -19 67 -5 0 -10 7 -10 16 0 19 -49 80 -61 77 -5 -2 -20
2 -34 7 -20 8 -25 15 -20 29 5 16 0 20 -22 23 -20 2 -30 11 -37 30 -13 38 -3
44 33 19 21 -15 32 -18 37 -10 4 8 3 9 -4 5 -7 -4 -12 -1 -12 8 0 9 -9 25 -20
36 -11 11 -20 26 -20 33 -1 21 -26 84 -41 101 -8 9 -21 25 -30 34 -9 9 -22 34
-28 54 -7 21 -22 45 -34 53 -12 9 -22 21 -22 28 0 6 -8 13 -18 15 -16 3 -44
29 -99 91 -24 27 -114 105 -204 176 -21 17 -54 45 -74 62 -21 18 -41 29 -45
25 -5 -4 -5 1 -2 11 5 12 1 17 -11 17 -10 0 -22 4 -28 8 -5 5 -25 15 -44 22
-19 7 -42 19 -51 27 -14 12 -17 12 -22 0 -8 -22 -71 -16 -75 7 -3 13 0 16 10
11 7 -4 5 1 -5 11 -17 18 -19 18 -28 1 -7 -12 -15 -15 -27 -8 -9 4 -23 6 -30
4 -7 -3 -22 3 -33 13 -17 16 -19 16 -19 1 0 -25 -18 -21 -48 12 -26 28 -92 52
-92 34z m-120 -47 c0 -8 6 -17 13 -19 7 -4 6 -6 -4 -6 -19 -1 -42 23 -32 32
11 12 23 8 23 -7z m855 -366 c3 -5 -3 -10 -15 -10 -12 0 -18 5 -15 10 3 6 10
10 15 10 5 0 12 -4 15 -10z m-1890 -124 c8 -7 11 -16 8 -20 -3 -3 2 -15 12
-27 17 -17 17 -22 5 -29 -19 -12 -21 -12 -40 0 -12 7 -12 12 -2 22 17 17 15
28 -7 28 -30 0 -51 11 -51 26 0 18 57 19 75 0z"/>
<path d="M3492 10793 c-31 -3 -46 -10 -58 -28 -8 -13 -28 -26 -42 -30 -15 -3
-38 -15 -52 -25 -23 -18 -23 -21 -8 -30 10 -6 15 -17 11 -26 -4 -10 -1 -14 8
-12 17 4 19 -1 19 -48 0 -28 -3 -35 -15 -30 -9 3 -18 -1 -22 -10 -3 -8 -12
-13 -19 -10 -16 6 -44 -42 -44 -74 0 -21 24 -28 35 -10 3 6 16 10 28 10 17 0
19 -2 7 -10 -21 -13 -8 -21 39 -23 59 -2 51 -17 -9 -17 -36 0 -52 -4 -56 -15
-4 -8 -17 -15 -29 -15 -15 0 -26 -8 -30 -20 -8 -26 11 -50 39 -50 12 0 16 -3
10 -8 -13 -8 13 -61 36 -72 8 -4 29 -14 45 -23 44 -23 158 -47 221 -47 30 0
54 -4 54 -10 0 -5 16 -10 36 -10 21 0 33 4 29 10 -3 6 1 10 10 10 10 0 13 -5
9 -12 -5 -8 4 -9 32 -5 23 4 33 3 25 -2 -21 -13 3 -21 35 -11 16 4 23 9 17 9
-24 2 -13 21 11 21 14 0 26 7 28 18 3 9 18 24 34 32 16 8 32 19 36 25 5 6 8 6
8 1 0 -6 14 12 32 40 27 42 53 102 75 167 4 13 9 15 19 6 11 -9 14 -6 14 19 0
16 7 35 15 42 8 7 15 17 15 22 0 19 -52 77 -65 72 -7 -3 -16 -1 -20 5 -3 6 1
11 9 11 9 0 16 3 16 6 0 9 -44 43 -56 44 -6 0 -23 9 -38 21 -73 57 -116 71
-236 77 -63 2 -120 9 -127 14 -7 6 -20 5 -34 -2 -14 -8 -19 -8 -15 -1 7 11 4
11 -82 4z m30 -167 c11 9 49 11 141 6 20 -2 27 -7 27 -22 0 -15 7 -20 26 -20
21 0 25 -4 21 -20 -3 -11 -1 -20 4 -20 5 0 9 -7 9 -15 0 -8 9 -15 20 -15 26 0
27 -36 1 -50 -14 -7 -28 -7 -48 2 -49 20 -56 21 -186 24 -106 3 -129 1 -133
-11 -4 -8 -14 -15 -24 -15 -26 0 -14 38 13 42 25 4 37 38 13 38 -17 0 -20 17
-10 44 6 15 8 15 20 -1 8 -10 13 -13 14 -6 0 7 6 10 14 7 15 -6 46 21 46 39 0
7 4 6 9 -2 7 -10 13 -12 23 -5z m62 -156 c25 0 32 -4 32 -20 0 -22 -12 -27
-18 -8 -5 14 -64 16 -123 5 l-40 -8 45 20 c25 11 51 18 58 15 8 -2 28 -4 46
-4z m86 -26 c0 -2 -7 -4 -15 -4 -8 0 -15 4 -15 10 0 5 7 7 15 4 8 -4 15 -8 15
-10z m-262 -125 c2 -5 15 -9 29 -9 22 0 24 -2 13 -15 -9 -11 -16 -13 -24 -5
-5 5 -29 10 -52 10 -43 0 -61 11 -48 31 7 12 77 3 82 -12z m499 -61 c-3 -8 -6
-5 -6 6 -1 11 2 17 5 13 3 -3 4 -12 1 -19z"/>
<path d="M3532 10618 c6 -18 28 -21 28 -4 0 9 -7 16 -16 16 -9 0 -14 -5 -12
-12z"/>
<path d="M3600 10620 c0 -5 5 -10 10 -10 6 0 10 5 10 10 0 6 -4 10 -10 10 -5
0 -10 -4 -10 -10z"/>
<path d="M5435 10690 c3 -5 8 -10 11 -10 2 0 4 5 4 10 0 6 -5 10 -11 10 -5 0
-7 -4 -4 -10z"/>
<path d="M5478 10693 c7 -3 16 -2 19 1 4 3 -2 6 -13 5 -11 0 -14 -3 -6 -6z"/>
<path d="M4501 10586 c-7 -8 -19 -12 -27 -9 -8 3 -21 0 -30 -7 -12 -11 -12
-15 -2 -22 8 -6 2 -7 -18 -3 -38 7 -84 -9 -84 -30 0 -8 -8 -15 -18 -15 -10 0
-27 -6 -37 -14 -16 -12 -17 -16 -6 -30 8 -9 11 -26 7 -41 -4 -14 -2 -25 3 -25
14 0 31 -66 31 -116 0 -36 3 -43 24 -48 14 -3 30 -4 38 -1 7 3 20 1 28 -5 13
-8 12 -11 -5 -24 -20 -15 -20 -15 2 -16 31 0 38 -18 14 -38 -36 -31 -32 -85 9
-102 17 -7 30 -17 30 -22 0 -5 8 -12 18 -15 9 -4 29 -19 43 -34 15 -16 46 -33
73 -40 25 -6 46 -16 46 -21 0 -5 4 -7 9 -3 5 3 13 0 16 -6 4 -5 13 -8 20 -5 7
2 35 -2 62 -10 26 -9 83 -18 125 -20 69 -5 78 -3 87 15 16 28 13 51 -4 51 -9
0 -18 7 -21 15 -4 8 -16 15 -29 15 -13 0 -25 7 -29 15 -7 20 4 19 51 -5 101
-51 203 -84 189 -61 -4 6 0 11 8 11 9 0 16 5 16 10 0 6 -9 10 -21 10 -11 0
-23 8 -26 18 -2 9 -34 30 -71 47 -37 17 -81 42 -98 57 -17 15 -71 48 -121 72
-49 25 -98 55 -109 67 -10 12 -14 19 -7 16 14 -8 45 2 38 13 -2 4 -33 13 -67
20 -59 13 -115 51 -103 70 3 4 31 11 62 15 32 4 62 10 68 13 23 14 89 10 102
-6 7 -10 12 -12 13 -5 0 7 7 10 15 7 8 -4 23 0 32 7 15 12 16 11 11 -9 -6 -21
-4 -22 27 -16 27 5 37 2 51 -15 10 -12 24 -21 31 -21 7 0 12 -6 11 -12 -2 -7
7 -14 20 -16 12 -2 22 -8 22 -13 0 -6 -8 -8 -17 -5 -10 3 -24 2 -31 -3 -11 -6
-10 -10 3 -15 14 -5 16 -14 12 -41 -4 -26 -2 -35 11 -39 9 -3 -5 -3 -32 0 -45
5 -49 4 -37 -10 8 -9 21 -16 31 -16 10 0 21 -10 25 -22 l8 -23 4 22 c4 18 11
22 45 21 31 0 42 -5 45 -19 6 -23 11 -24 34 -3 10 9 15 22 12 30 -3 9 2 14 13
14 16 0 17 2 4 10 -24 16 -30 12 -30 -21 0 -16 -4 -28 -9 -25 -5 3 -7 14 -4
25 3 13 -6 27 -31 46 -34 26 -48 55 -25 55 5 0 7 5 4 10 -4 6 9 10 30 10 28 0
36 -4 32 -14 -4 -10 0 -12 14 -9 13 4 18 11 15 20 -4 8 4 23 16 33 l22 18 -28
41 c-32 46 -40 51 -31 19 l7 -23 -17 23 c-25 34 -66 77 -73 77 -4 0 -28 15
-54 33 -26 17 -50 32 -54 32 -4 0 -38 16 -76 35 -97 50 -212 70 -303 54 -5 -1
-17 2 -26 5 -9 4 -21 1 -28 -8z m659 -276 c8 -5 12 -11 9 -14 -3 -3 -14 1 -25
9 -21 16 -8 20 16 5z m-644 -37 c-11 -11 -19 6 -11 24 8 17 8 17 12 0 3 -10 2
-21 -1 -24z m524 -108 c0 -8 -4 -15 -10 -15 -5 0 -7 7 -4 15 4 8 8 15 10 15 2
0 4 -7 4 -15z m-598 -67 c-9 -9 -15 -9 -24 0 -9 9 -7 12 12 12 19 0 21 -3 12
-12z"/>
<path d="M4197 10481 c-5 -22 0 -31 19 -31 6 0 11 11 10 25 -1 30 -21 33 -29
6z"/>
<path d="M3100 10425 c0 -8 2 -15 4 -15 2 0 6 7 10 15 3 8 1 15 -4 15 -6 0
-10 -7 -10 -15z"/>
<path d="M5160 10260 c0 -5 5 -10 10 -10 6 0 10 5 10 10 0 6 -4 10 -10 10 -5
0 -10 -4 -10 -10z"/>
<path d="M3918 10183 c7 -3 16 -2 19 1 4 3 -2 6 -13 5 -11 0 -14 -3 -6 -6z"/>
<path d="M4908 10176 c-20 -15 -23 -26 -8 -26 5 0 14 9 20 20 12 23 11 24 -12
6z"/>
<path d="M5030 10090 c0 -5 5 -10 10 -10 6 0 10 5 10 10 0 6 -4 10 -10 10 -5
0 -10 -4 -10 -10z"/>
<path d="M3736 9784 c-3 -8 -19 -14 -39 -14 -19 0 -48 -7 -65 -16 -39 -19 -72
-10 -72 19 0 33 -19 7 -24 -33 -3 -19 -5 -35 -6 -35 -1 0 -4 -13 -6 -30 -4
-35 16 -54 88 -86 51 -23 54 -38 10 -40 -27 -1 -27 -1 -3 -8 14 -4 26 -12 29
-19 4 -12 -15 -14 -145 -15 -29 -1 -53 -4 -53 -8 0 -3 -11 -4 -25 -1 -20 3
-24 8 -19 28 4 15 2 24 -5 24 -6 0 -11 -9 -11 -20 0 -11 -4 -20 -9 -20 -5 0
-18 -3 -28 -6 -16 -5 -16 -4 -2 5 9 6 20 22 23 36 6 24 21 30 66 27 22 -1 50
17 50 32 0 7 -9 25 -20 39 -19 24 -19 26 -3 30 10 3 -8 5 -39 6 -31 0 -60 -3
-63 -9 -3 -5 -18 -7 -34 -4 -18 4 -33 0 -44 -11 -21 -20 -40 -10 -32 16 7 21
-18 28 -31 8 -4 -7 -20 -9 -40 -6 -26 5 -32 3 -27 -10 3 -8 13 -13 24 -10 24
6 26 -18 3 -27 -10 -4 -22 1 -29 10 -9 13 -14 14 -20 4 -5 -8 1 -19 16 -31
l24 -19 -22 0 c-13 0 -23 5 -23 10 0 6 -5 10 -10 10 -6 0 -8 -11 -4 -25 5 -19
3 -24 -8 -20 -8 3 -21 -1 -28 -10 -7 -8 -17 -15 -22 -15 -5 0 -17 -7 -25 -16
-14 -13 -14 -20 -4 -35 7 -12 9 -34 5 -53 -6 -34 9 -58 20 -31 3 8 10 15 16
15 14 0 13 -27 -2 -33 -8 -2 -1 -15 20 -34 27 -27 32 -28 32 -12 0 10 -4 19
-10 19 -15 0 -12 20 7 38 16 16 16 16 11 -6 -4 -12 -1 -28 5 -35 13 -13 16
-85 4 -104 -5 -8 3 -19 20 -30 36 -22 45 -35 33 -47 -15 -15 -12 -26 6 -26 12
0 15 7 12 25 -6 30 -2 31 39 5 23 -14 31 -24 26 -36 -4 -11 -2 -15 4 -11 6 4
21 -5 33 -20 22 -28 28 -30 122 -33 28 -1 41 -7 50 -23 30 -57 65 -64 59 -10
-1 6 3 14 9 18 5 3 10 -1 10 -9 0 -9 7 -16 16 -16 8 0 12 5 9 10 -3 6 1 10 9
10 9 0 16 5 16 10 0 8 -63 16 -92 11 -5 0 -8 6 -8 14 0 10 -8 15 -22 14 -75
-7 -96 21 -66 83 25 52 45 58 75 24 12 -15 23 -23 23 -17 0 16 30 41 50 41 10
0 26 -8 36 -17 22 -22 40 -25 55 -7 16 19 32 18 76 -6 21 -11 34 -20 30 -20
-5 0 -1 -7 8 -16 10 -11 20 -13 28 -7 7 6 35 11 63 12 49 2 52 0 62 -29 6 -16
18 -30 26 -30 10 0 13 6 10 15 -5 11 1 15 24 15 37 0 95 -54 87 -82 -18 -66
-19 -65 12 -33 17 17 26 34 21 39 -26 31 16 29 54 -3 30 -24 39 -57 26 -86
-15 -33 -5 -41 24 -21 34 24 60 21 56 -6 -2 -15 -9 -22 -20 -20 -9 1 -20 -3
-24 -9 -5 -8 11 -9 57 -4 66 7 181 43 188 58 5 12 31 -41 31 -64 0 -11 2 -19
5 -19 3 0 27 24 55 53 50 52 87 130 82 172 -2 19 -2 19 11 3 8 -10 27 -18 42
-18 16 0 37 -8 47 -17 17 -15 20 -15 34 -1 14 14 11 16 -25 22 -27 4 -41 11
-41 21 0 19 14 19 30 0 23 -27 55 -14 58 23 2 21 9 32 19 32 9 0 14 3 10 6 -3
3 -14 3 -25 0 -14 -5 -18 -13 -15 -26 4 -15 0 -20 -16 -20 -24 0 -27 10 -9 28
9 9 8 12 -5 12 -9 0 -20 8 -26 17 -8 14 -11 15 -25 4 -26 -22 -32 -3 -8 22 26
27 28 37 7 37 -8 0 -15 6 -15 13 0 7 -9 18 -20 25 -11 7 -20 20 -20 30 0 14
-2 15 -10 2 -7 -12 -12 -12 -34 0 -19 10 -24 19 -20 36 4 17 -1 26 -25 40 -19
11 -37 36 -50 66 -11 26 -24 48 -30 48 -5 0 -11 10 -13 21 -2 12 -12 27 -23
33 -11 6 -24 17 -28 24 -13 20 -53 14 -73 -13 -36 -48 -54 -42 -140 43 -30 28
-61 52 -69 52 -8 0 -15 4 -15 10 0 19 -92 52 -132 47 -25 -3 -61 3 -105 18
-93 31 -140 37 -147 19z m114 -264 c0 -5 -7 -10 -16 -10 -8 0 -12 5 -9 10 3 6
10 10 16 10 5 0 9 -4 9 -10z m203 -45 c43 -9 84 -14 92 -11 8 3 15 1 15 -4 0
-14 120 -13 158 1 52 18 120 -23 93 -55 -7 -8 -4 -16 10 -24 12 -8 18 -19 15
-30 -3 -9 1 -30 9 -46 22 -41 19 -56 -11 -56 -21 0 -25 -3 -19 -17 4 -10 10
-28 13 -41 3 -14 10 -21 18 -18 8 3 14 -1 14 -9 0 -8 -8 -15 -18 -15 -21 0
-72 22 -72 32 0 3 -13 9 -30 13 -16 4 -32 11 -35 16 -9 14 -73 41 -83 35 -5
-3 -35 8 -68 24 -32 17 -73 30 -91 30 -17 0 -35 5 -38 10 -3 6 -17 10 -31 10
-14 0 -27 7 -30 15 -9 22 -24 18 -24 -5 0 -11 -4 -20 -10 -20 -5 0 -10 9 -10
20 0 24 -35 40 -90 40 -33 0 -37 3 -33 20 5 17 0 20 -29 20 -19 0 -38 3 -42 8
-4 4 -18 7 -30 7 -19 1 -22 -3 -18 -25 4 -24 4 -25 -12 -5 -23 30 -20 52 10
58 44 8 112 -5 135 -26 12 -11 40 -24 63 -28 54 -11 153 -11 160 -1 6 10 -60
28 -128 36 -59 7 -61 9 -45 33 17 28 49 40 84 32 17 -4 65 -15 108 -24z m-231
-7 c-7 -7 -12 -8 -12 -2 0 14 12 26 19 19 2 -3 -1 -11 -7 -17z m-275 1 c8 -8
17 -8 32 0 24 13 27 4 6 -23 -8 -11 -21 -16 -30 -13 -8 4 -15 2 -15 -4 0 -6
-19 -7 -50 -3 -32 4 -50 3 -50 -4 0 -5 -17 -13 -37 -17 -21 -4 -41 -12 -45
-18 -6 -9 -8 -9 -8 0 0 16 58 63 78 63 9 0 35 7 57 15 49 17 49 17 62 4z"/>
<path d="M3915 9460 c3 -5 11 -10 16 -10 6 0 7 5 4 10 -3 6 -11 10 -16 10 -6
0 -7 -4 -4 -10z"/>
<path d="M3510 9585 c0 -8 2 -15 4 -15 2 0 6 7 10 15 3 8 1 15 -4 15 -6 0 -10
-7 -10 -15z"/>
<path d="M5779 9361 l-24 -20 23 -21 c12 -11 22 -26 22 -32 0 -30 19 11 23 50
5 48 -7 54 -44 23z"/>
<path d="M5628 9309 c-59 -30 -96 -97 -69 -124 6 -6 11 -38 12 -73 1 -35 6
-65 11 -68 4 -3 8 5 8 17 0 21 1 21 18 6 22 -20 65 -22 80 -4 11 14 15 127 4
127 -4 0 -13 13 -19 29 -8 23 -8 36 3 56 12 24 10 56 -5 54 -3 -1 -22 -10 -43
-20z"/>
<path d="M5375 9217 c-4 -10 -5 -21 -1 -24 10 -10 18 4 13 24 -4 17 -4 17 -12
0z"/>
<path d="M4816 9118 l-18 -21 37 6 c45 7 54 15 35 27 -23 15 -34 12 -54 -12z"/>
<path d="M4826 9075 c-4 -10 1 -15 16 -15 17 0 18 2 8 15 -7 8 -14 15 -15 15
-2 0 -5 -7 -9 -15z"/>
<path d="M4885 9060 c-3 -5 -1 -10 4 -10 6 0 11 5 11 10 0 6 -2 10 -4 10 -3 0
-8 -4 -11 -10z"/>
<path d="M3634 9041 c4 -6 20 -11 36 -11 16 0 32 -5 35 -10 3 -6 17 -7 31 -4
18 5 24 2 24 -10 0 -9 4 -16 8 -16 17 0 21 13 11 31 -7 14 -20 18 -47 17 -20
0 -52 2 -71 7 -23 5 -31 4 -27 -4z"/>
<path d="M4745 9020 c3 -5 10 -10 16 -10 5 0 9 5 9 10 0 6 -7 10 -16 10 -8 0
-12 -4 -9 -10z"/>
<path d="M3403 8973 c2 -24 1 -43 -4 -43 -5 0 -9 -9 -9 -20 0 -11 5 -20 10
-20 18 0 11 -20 -7 -21 -11 0 -13 -3 -5 -6 7 -2 12 -22 12 -45 0 -40 1 -40 30
-34 22 4 30 2 30 -8 0 -16 59 -30 84 -20 9 3 16 2 16 -4 0 -5 28 -15 63 -22
92 -19 120 -21 127 -10 3 6 17 4 35 -6 16 -8 34 -13 41 -10 7 3 27 -2 45 -11
29 -15 32 -14 41 1 6 11 16 15 28 11 11 -3 42 1 71 9 28 9 55 13 60 10 5 -3 9
2 9 11 0 9 -5 13 -10 10 -6 -3 -13 2 -17 12 -4 10 -11 21 -16 24 -16 11 4 31
24 26 12 -3 19 0 19 8 0 7 5 15 11 17 17 6 -1 36 -26 42 -13 3 -35 2 -49 -4
-14 -5 -26 -6 -26 -1 0 7 -44 14 -220 36 -14 1 -34 6 -45 10 -35 12 -46 15
-123 31 -78 16 -132 38 -132 53 0 5 -16 11 -36 13 l-36 4 5 -43z"/>
<path d="M3827 9004 c-11 -11 3 -24 26 -25 l22 0 -22 -9 c-13 -5 -23 -12 -23
-15 0 -11 39 -4 53 9 10 10 25 12 58 6 26 -5 48 -5 54 1 5 5 -3 9 -22 9 -17 0
-39 7 -48 16 -10 11 -19 13 -28 6 -7 -5 -21 -6 -32 -1 -26 10 -30 10 -38 3z"/>
<path d="M5492 8998 c-7 -7 -12 -23 -12 -37 0 -19 3 -22 9 -12 5 7 14 10 20 7
13 -8 15 22 3 41 -6 10 -11 10 -20 1z"/>
<path d="M4045 8985 c-5 -11 -10 -23 -12 -27 -2 -4 4 -5 13 -1 11 4 15 3 10
-5 -4 -7 1 -10 13 -9 17 1 18 3 7 17 -7 8 -16 22 -19 30 -4 12 -6 11 -12 -5z"/>
<path d="M5296 8822 c-21 -9 -37 -19 -35 -22 2 -3 -10 -25 -27 -50 -58 -84
-56 -117 6 -117 33 0 45 6 80 43 23 24 45 44 51 44 16 0 10 35 -10 57 -11 11
-21 30 -23 41 -3 21 -4 21 -42 4z"/>
<path d="M4527 8754 c-4 -4 -7 -16 -7 -27 0 -15 -5 -18 -25 -15 -13 3 -23 2
-23 -1 1 -3 -1 -16 -6 -29 -5 -14 -2 -34 8 -54 18 -35 21 -78 6 -78 -5 0 -10
-9 -10 -20 0 -11 -4 -20 -8 -20 -5 0 -14 -12 -21 -26 -10 -23 -9 -28 14 -46
26 -20 33 -52 15 -63 -6 -4 -8 -11 -4 -17 3 -5 15 4 25 21 13 22 23 29 36 24
11 -4 13 -8 4 -11 -9 -3 -8 -10 3 -27 9 -13 13 -31 10 -39 -7 -18 -24 -22 -24
-6 0 6 -7 10 -15 10 -8 0 -15 -4 -15 -9 0 -4 -14 -24 -30 -42 -29 -33 -31 -33
-45 -15 -14 19 -16 19 -34 2 -15 -14 -24 -15 -39 -7 -16 8 -21 7 -26 -4 -3 -8
0 -15 6 -15 6 0 8 -3 5 -6 -4 -4 -12 -2 -19 4 -14 11 -139 32 -150 25 -5 -2
-8 1 -8 6 0 6 -11 11 -24 11 -14 0 -28 5 -31 11 -4 6 -28 9 -55 8 -26 -2 -60
2 -76 8 -53 19 -119 31 -154 29 -19 -1 -39 3 -45 10 -7 9 -22 11 -53 5 -23 -5
-45 -4 -48 0 -3 5 -15 9 -26 9 -11 0 -27 8 -34 18 -13 16 -13 16 -14 0 0 -19
-15 -24 -25 -8 -4 6 -15 6 -30 0 -17 -6 -25 -6 -25 1 0 21 -72 40 -162 42 -65
1 -93 -2 -96 -11 -2 -6 -12 -12 -21 -12 -25 0 -44 -45 -31 -71 6 -11 8 -24 5
-29 -3 -5 12 -21 32 -37 21 -15 40 -31 41 -35 2 -5 11 -8 19 -8 13 0 13 -3 3
-15 -10 -12 -10 -16 1 -20 9 -3 15 -26 17 -66 1 -34 9 -70 17 -82 8 -12 15
-28 15 -37 0 -8 16 -26 35 -39 37 -25 45 -41 20 -41 -8 0 -15 -4 -15 -10 0 -5
5 -10 10 -10 6 0 10 -5 10 -11 0 -6 -6 -9 -14 -6 -8 3 -22 0 -32 -7 -21 -16
-15 -77 10 -102 22 -21 20 -41 -4 -56 -25 -16 -28 -68 -4 -68 11 0 14 -5 9
-17 -8 -20 -8 -19 1 -83 3 -25 7 -56 8 -69 0 -13 7 -26 14 -29 6 -2 12 -10 12
-17 0 -18 21 -30 29 -17 4 6 24 8 49 5 37 -5 44 -10 49 -34 3 -15 14 -36 24
-45 11 -9 19 -23 19 -31 0 -7 5 -13 11 -13 6 0 9 -6 6 -14 -3 -8 6 -24 19 -37
19 -18 23 -30 19 -50 -4 -15 -1 -30 5 -34 7 -4 8 -11 2 -18 -18 -24 -21 -60
-5 -83 15 -23 14 -24 -13 -25 -28 0 -28 -1 -7 -11 13 -6 25 -19 28 -29 3 -9
19 -32 35 -51 16 -18 30 -36 30 -40 0 -4 -15 -8 -32 -10 -44 -4 -46 -28 -6
-51 30 -17 31 -19 14 -29 -11 -6 -34 -14 -53 -18 -25 -6 -33 -5 -33 6 0 8 -11
27 -25 42 -14 15 -25 37 -25 49 0 13 -9 28 -20 35 -25 16 -25 25 -2 31 13 3
11 6 -11 15 -17 7 -34 26 -43 47 -15 36 -29 45 -37 23 -2 -7 -10 6 -17 30 -7
23 -17 42 -21 42 -16 0 -60 53 -55 66 3 8 -1 14 -9 14 -12 0 -14 -8 -9 -40 5
-28 3 -40 -5 -40 -8 0 -10 -11 -6 -34 7 -35 -10 -60 -25 -36 -6 10 -9 9 -13
-1 -3 -8 -6 -4 -6 9 -1 13 -5 21 -10 18 -12 -8 -19 29 -27 152 -4 56 -10 102
-13 102 -16 0 -71 -70 -107 -135 -21 -38 -41 -72 -44 -75 -4 -3 -13 -23 -20
-45 -7 -22 -19 -45 -26 -51 -16 -13 -84 -175 -84 -199 0 -9 -12 -58 -27 -108
-14 -51 -26 -102 -25 -114 2 -27 -28 -32 -48 -8 -10 12 -19 11 -63 -12 -29
-14 -78 -48 -110 -74 -32 -27 -63 -49 -69 -49 -5 0 -22 -8 -36 -19 -38 -26
-362 -197 -392 -206 -14 -4 -32 -13 -40 -20 -8 -8 -44 -28 -80 -45 -36 -18
-81 -41 -101 -51 -20 -10 -43 -19 -51 -19 -8 0 -27 -11 -42 -25 -15 -14 -33
-25 -40 -25 -7 0 -23 -11 -36 -25 -13 -14 -29 -25 -36 -25 -6 0 -26 -13 -44
-30 -18 -16 -37 -30 -43 -30 -6 0 -8 -3 -4 -6 9 -9 -61 -72 -100 -91 -18 -8
-33 -19 -33 -24 0 -5 -13 -9 -30 -9 -20 0 -30 -5 -30 -15 0 -8 -52 -68 -115
-132 -63 -65 -115 -122 -115 -127 0 -5 -10 -20 -21 -32 -17 -19 -21 -35 -20
-80 l1 -57 -24 23 -25 23 -7 -27 c-3 -14 -4 -38 -1 -51 5 -27 -7 -43 -18 -25
-12 19 -22 10 -35 -32 -7 -24 -17 -47 -22 -52 -4 -6 -8 -20 -8 -32 0 -13 -5
-26 -10 -29 -6 -3 -10 -1 -10 4 0 6 -4 11 -10 11 -5 0 -17 -26 -26 -57 -9 -32
-20 -62 -25 -67 -5 -6 -9 -19 -9 -29 0 -10 -15 -65 -34 -120 -19 -56 -46 -151
-61 -212 -15 -60 -31 -112 -34 -115 -4 -3 -13 -31 -20 -62 -7 -32 -17 -60 -22
-63 -5 -4 -9 -21 -9 -38 0 -34 -38 -155 -66 -208 -15 -30 -21 -52 -28 -104 -1
-11 -8 -30 -14 -42 -7 -12 -12 -28 -12 -35 0 -8 -10 -34 -21 -58 -12 -25 -23
-56 -24 -70 -2 -25 -5 -36 -29 -95 -7 -16 -21 -57 -30 -90 -10 -33 -22 -73
-28 -90 -5 -16 -14 -49 -20 -72 -5 -24 -13 -43 -18 -43 -4 0 -10 -19 -14 -42
-6 -42 -14 -71 -55 -198 -12 -36 -21 -74 -21 -85 0 -12 -4 -25 -9 -30 -9 -11
-22 -59 -47 -178 -9 -42 -20 -80 -25 -83 -5 -3 -9 -19 -9 -36 0 -17 -7 -67
-16 -111 -14 -67 -14 -81 -3 -92 16 -14 104 -45 129 -45 9 0 46 -9 81 -20 35
-11 82 -26 104 -32 22 -6 45 -16 50 -21 6 -6 1 -7 -15 -3 -102 29 -314 75
-349 76 -21 0 -23 -3 -17 -31 3 -17 1 -39 -5 -50 -17 -32 18 -181 50 -210 12
-11 21 -23 21 -28 0 -4 12 -14 28 -21 15 -8 34 -19 42 -26 8 -6 27 -14 43 -18
15 -4 36 -15 47 -26 11 -11 40 -25 65 -31 25 -6 63 -24 85 -40 22 -16 44 -29
50 -29 6 0 27 -11 48 -24 20 -13 89 -41 152 -64 63 -22 150 -53 193 -68 l77
-28 0 -42 c0 -33 5 -46 19 -54 29 -15 35 -13 73 24 43 41 94 52 212 42 102 -7
247 -43 263 -65 7 -9 10 -23 7 -33 -3 -9 -1 -19 4 -22 13 -8 24 -70 16 -90 -3
-9 -14 -15 -23 -14 -11 2 -17 -6 -19 -29 -2 -19 1 -33 7 -33 6 0 11 -18 11
-40 0 -38 -2 -40 -30 -40 -27 0 -29 -2 -18 -19 9 -15 9 -25 1 -43 -17 -35 -25
-96 -13 -103 5 -3 9 -21 9 -38 -1 -24 -3 -26 -6 -9 -5 26 -23 20 -23 -9 0 -10
7 -19 15 -19 8 0 15 -5 15 -11 0 -5 -4 -7 -10 -4 -5 3 -17 -10 -27 -29 -10
-22 -24 -36 -35 -36 -14 0 -18 -8 -18 -40 0 -35 3 -40 23 -41 15 -1 11 -4 -15
-11 -35 -9 -36 -11 -35 -54 0 -25 5 -48 11 -52 6 -4 17 -15 25 -25 12 -16 13
-20 1 -27 -11 -7 -11 -11 -1 -24 11 -13 11 -20 -3 -41 -9 -13 -16 -30 -16 -37
0 -6 -9 -22 -21 -34 -14 -15 -19 -31 -16 -50 l4 -29 7 32 c5 17 14 34 21 37
10 3 11 -2 4 -22 -18 -55 -22 -62 -30 -62 -5 0 -9 -11 -9 -25 0 -14 -7 -28
-15 -31 -10 -4 -13 -14 -9 -30 4 -15 0 -34 -10 -49 -9 -13 -16 -31 -16 -39 0
-9 -8 -31 -17 -50 -12 -27 -20 -33 -29 -25 -11 9 -13 1 -12 -38 0 -46 -23
-124 -56 -188 -9 -16 -16 -38 -16 -48 0 -10 -11 -42 -24 -70 -13 -29 -27 -67
-30 -84 l-8 -33 1046 0 1046 0 0 35 c0 19 5 35 10 35 7 0 8 -13 4 -35 l-6 -35
194 0 195 0 10 48 10 47 2 -47 1 -48 1960 0 1959 0 -4 90 c-5 113 -10 133 -36
125 -11 -4 -19 -2 -19 4 0 6 12 11 26 11 21 0 25 3 19 18 -4 9 -10 31 -13 47
-2 17 -11 38 -20 48 -14 15 -14 17 1 17 24 0 42 37 27 55 -9 11 -8 19 4 37 22
31 21 95 -1 101 -12 3 -9 5 8 6 15 0 30 8 33 17 9 22 8 23 -13 17 -10 -3 -22
0 -26 7 -4 7 1 14 14 17 23 6 28 28 9 36 -10 4 -10 6 0 6 15 1 16 33 0 49 -9
9 -9 15 0 24 16 16 15 34 -4 53 -10 9 -18 33 -19 53 -1 20 -3 47 -4 60 0 12
-9 26 -18 29 -34 13 -42 29 -36 71 3 22 3 53 -1 67 -5 21 -11 25 -28 19 -18
-5 -20 -3 -14 20 5 19 2 26 -8 26 -21 0 -27 27 -11 44 20 20 19 25 -9 50 -27
24 -47 76 -40 103 6 21 -68 98 -101 106 -17 4 -16 5 5 6 14 1 31 5 39 10 11 7
5 11 -22 16 -36 7 -50 28 -24 38 6 3 -1 6 -18 7 -38 1 -95 44 -71 53 20 8 21
27 1 27 -8 0 -15 8 -15 18 0 10 -7 28 -16 40 -14 21 -14 22 7 22 21 0 21 1 6
18 -25 28 -49 104 -43 137 3 17 0 42 -8 57 -12 23 -12 27 1 30 12 2 11 9 -8
32 -25 32 -41 146 -21 146 6 0 18 7 27 16 13 14 48 17 225 18 148 2 213 6 224
15 8 7 36 11 65 10 36 -2 55 2 64 13 19 23 145 60 180 52 17 -3 39 -1 54 7 15
8 27 9 31 4 10 -14 73 -17 88 -4 8 7 14 7 19 -1 5 -8 11 -8 21 1 11 9 18 9 26
1 26 -26 98 -4 135 40 10 13 38 39 63 58 62 49 120 105 120 117 0 5 21 28 48
50 27 23 58 62 73 93 23 46 25 57 16 89 -6 20 -16 39 -21 43 -6 4 -1 14 12 25
22 17 23 22 16 117 -6 78 -11 102 -27 116 -14 13 -17 26 -13 47 11 50 -4 58
-109 61 -63 3 -125 -2 -181 -13 -47 -9 -88 -15 -91 -12 -18 18 137 56 265 64
67 4 92 9 88 18 -2 7 -7 33 -11 58 -4 25 -18 61 -31 78 -14 20 -24 47 -24 67
0 46 -20 122 -32 122 -6 0 -5 7 2 15 16 19 -3 116 -26 136 -8 6 -14 26 -13 43
2 39 -49 197 -69 212 -10 8 -13 19 -8 39 5 18 2 35 -9 52 -9 13 -19 52 -23 86
-6 54 -10 62 -32 67 -17 4 -21 8 -12 14 18 11 15 39 -8 59 -16 14 -18 21 -10
36 12 24 13 34 1 27 -4 -3 -11 27 -15 67 -6 62 -10 75 -34 94 -22 17 -25 24
-14 34 6 7 12 22 12 33 0 26 -41 116 -53 116 -5 0 -6 13 -2 28 3 16 0 42 -6
58 -7 16 -11 35 -10 42 1 8 -3 20 -10 28 -6 8 -9 23 -6 35 3 12 0 22 -9 26 -9
3 -14 20 -14 47 0 23 -4 46 -9 52 -5 5 -16 43 -25 84 -28 141 -56 253 -65 264
-5 6 -12 29 -16 51 -11 68 -46 169 -64 184 -11 9 -12 15 -4 18 12 4 -9 85 -30
111 -5 7 -11 26 -12 42 -2 17 -8 37 -16 46 -16 20 -49 116 -43 126 3 5 1 8 -4
8 -5 0 -20 20 -33 45 -17 31 -32 46 -51 50 -34 8 -47 25 -19 25 12 0 21 7 21
15 0 8 -9 15 -20 15 -11 0 -20 6 -20 14 0 8 -11 28 -25 44 -14 17 -25 37 -25
45 0 9 -5 19 -10 22 -6 4 -8 11 -5 16 15 23 -146 49 -172 27 -12 -10 -17 -10
-20 -1 -4 10 -9 10 -25 0 -16 -9 -22 -9 -25 1 -7 19 -22 14 -49 -15 -18 -20
-24 -23 -20 -10 3 10 6 23 6 28 0 5 7 9 15 9 22 0 18 27 -7 44 -32 23 -57 20
-80 -9 -11 -14 -24 -25 -29 -25 -18 0 -9 26 16 44 14 10 25 22 25 27 0 4 -26
27 -58 52 -76 58 -97 75 -147 120 -23 20 -45 37 -48 37 -3 0 -19 12 -35 28
-16 15 -50 40 -77 55 -26 15 -46 30 -43 32 7 8 69 -28 130 -74 32 -23 62 -41
68 -39 9 3 -93 88 -106 88 -3 0 -20 11 -37 24 -33 24 -169 95 -267 139 -76 34
-217 79 -263 83 -21 2 -79 17 -130 34 -50 17 -100 29 -109 27 -10 -3 -18 -2
-18 1 0 4 -35 7 -78 8 -81 1 -167 17 -211 40 l-26 14 25 0 c14 0 57 -9 95 -19
63 -17 136 -21 235 -12 44 4 -87 63 -137 62 -33 -1 -43 3 -43 15 0 12 -10 15
-52 13 -33 -2 -53 1 -56 9 -2 7 -14 12 -26 12 -13 0 -35 9 -50 21 -19 15 -50
23 -119 30 -50 4 -93 9 -94 9 -2 0 -3 7 -3 15 0 10 -10 15 -30 15 -18 0 -33 6
-36 15 -5 12 -15 14 -40 9 -30 -5 -35 -3 -44 20 -5 14 -14 26 -19 26 -6 0 -8
8 -4 18 5 15 4 14 -9 -2 -8 -10 -20 -16 -26 -12 -6 3 -13 -2 -15 -11 -3 -10
-5 -3 -6 15 0 17 -4 32 -9 32 -8 0 -35 -56 -37 -80 -4 -27 -90 -193 -146 -280
-20 -30 -43 -67 -53 -83 -19 -32 -96 -262 -96 -290 0 -10 -5 -28 -12 -40 -7
-12 -13 -26 -13 -32 -1 -5 -5 -19 -10 -29 -6 -13 -3 -22 8 -31 25 -18 21 -28
-8 -23 -21 5 -26 0 -34 -26 -6 -24 -5 -34 7 -43 26 -21 35 -15 28 22 -8 39 -4
42 22 19 23 -19 18 -60 -9 -75 -11 -5 -19 -20 -19 -34 0 -13 -3 -30 -6 -39 -7
-17 -34 -22 -34 -6 0 6 5 10 11 10 8 0 8 4 -1 14 -6 8 -18 12 -25 10 -8 -3
-22 -1 -32 5 -16 9 -15 10 10 11 22 0 27 4 27 25 0 27 -18 33 -38 13 -7 -7
-12 -8 -12 -2 0 5 -14 18 -31 28 -31 18 -31 18 -24 -3 8 -27 -2 -45 -19 -29
-6 6 -10 24 -8 40 3 16 0 28 -7 28 -6 0 -11 -7 -11 -15 0 -13 -4 -14 -21 -5
-11 6 -23 19 -26 28 -3 9 -13 25 -20 34 -13 15 -13 16 7 11 18 -5 21 -2 18 13
-2 14 -13 19 -38 21 -19 1 -36 7 -38 13 -2 6 -15 23 -28 37 -31 34 -32 56 -1
49 12 -3 16 -3 9 0 -7 3 -18 18 -24 33 -11 26 -11 26 -17 3 -7 -25 0 -30 -77
67 -37 46 -37 61 -3 61 17 0 43 -8 57 -17 15 -10 36 -23 47 -29 10 -6 22 -22
26 -37 8 -29 57 -97 70 -97 15 0 10 30 -6 36 -15 6 -20 35 -9 47 4 4 19 -2 33
-11 14 -10 43 -27 64 -37 21 -12 37 -27 37 -37 0 -10 7 -18 15 -18 8 0 15 5
15 10 0 19 17 10 28 -15 11 -24 0 -46 -13 -24 -4 5 -13 8 -20 5 -7 -2 -21 2
-32 9 -25 20 -33 18 -33 -6 0 -21 -1 -20 -21 5 -22 28 -49 35 -49 13 0 -16 32
-47 48 -47 7 0 12 -7 12 -15 0 -8 14 -24 30 -37 17 -12 30 -28 30 -35 0 -7 5
-13 10 -13 6 0 16 -12 22 -27 l11 -28 9 39 c6 27 5 42 -3 46 -20 13 -5 45 19
43 33 -4 47 38 27 77 -17 34 -18 40 -3 58 8 9 14 9 23 2 16 -13 45 23 45 55 0
19 30 110 64 189 9 21 33 64 54 95 42 62 122 216 154 295 22 55 21 53 33 109
4 20 11 37 16 37 5 0 9 7 9 15 0 22 -17 18 -23 -5 -3 -11 -10 -20 -16 -20 -14
0 -14 27 -1 35 6 3 10 16 10 27 0 12 -3 18 -7 15 -8 -9 -32 24 -33 45 0 9 -6
19 -12 21 -10 4 -10 8 1 15 11 8 9 11 -8 17 -12 3 -37 27 -55 51 -19 25 -46
54 -60 65 -14 11 -26 29 -26 40 0 21 -19 27 -21 7 -1 -7 -5 4 -10 25 -5 21
-18 47 -29 59 -11 12 -20 27 -20 33 0 6 -9 18 -20 28 -21 17 -19 43 2 31 6 -4
9 -1 6 7 -3 8 -14 15 -25 17 -18 3 -22 -4 -27 -45 -11 -71 -58 -140 -196 -283
-80 -83 -108 -118 -101 -126 3 -3 -4 -3 -16 0 -19 6 -23 3 -23 -12 0 -11 -12
-31 -27 -44 -16 -12 -33 -36 -38 -53 -6 -16 -14 -28 -19 -27 -12 5 -29 -25
-22 -37 4 -5 -3 -7 -15 -4 -18 5 -20 3 -14 -18 3 -13 3 -19 -2 -13 -4 6 -16
13 -25 17 -12 4 -15 2 -11 -9 3 -7 0 -14 -6 -14 -6 0 -11 -5 -11 -11 0 -7 10
-9 26 -5 15 4 23 3 20 -2 -8 -14 -42 -21 -57 -12 -11 7 -44 -14 -44 -29 0 -3
-6 -15 -12 -26 -9 -16 -14 -17 -26 -7 -12 11 -17 10 -23 0 -5 -7 -9 -17 -9
-22 0 -5 -6 -11 -12 -13 -7 -3 -13 1 -13 7 0 10 -3 10 -15 0 -8 -6 -19 -9 -24
-6 -6 4 -16 -6 -24 -21 l-15 -27 -13 23 c-8 12 -29 31 -46 42 -18 12 -33 26
-33 32 0 8 4 7 9 -2 10 -15 41 -8 41 8 0 6 -11 18 -24 27 -15 9 -22 21 -19 30
3 9 -2 14 -15 14 -11 0 -25 6 -31 14 -14 17 -84 14 -106 -4 -8 -7 -23 -9 -32
-5 -15 6 -13 10 15 23 17 9 32 18 32 22 0 3 -17 14 -37 24 -36 17 -37 19 -16
27 15 5 21 14 17 24 -4 8 -1 15 6 15 8 0 10 10 5 33 -5 25 -4 29 5 17 8 -11
10 0 5 48 -5 46 -4 62 5 62 17 0 4 61 -15 76 -14 10 -14 12 0 18 9 3 13 2 10
-4 -3 -6 1 -10 9 -10 9 0 16 7 16 15 0 9 11 20 25 25 26 10 34 35 13 43 -10 3
-10 10 1 31 14 24 13 28 -7 42 -21 14 -21 17 -7 45 9 16 23 29 33 29 14 0 15
2 2 10 -24 15 -6 21 69 21 53 0 74 4 78 15 3 9 19 14 43 14 24 0 40 5 44 15 4
11 21 15 59 15 29 0 57 4 63 9 5 5 34 22 64 38 73 38 104 56 110 65 3 4 22 14
41 22 23 10 41 26 49 46 7 16 16 30 20 30 11 0 70 56 70 67 0 15 24 63 32 63
17 0 38 34 39 63 0 26 2 28 8 12 6 -13 7 -3 6 30 -3 66 -2 63 -25 70 -16 5
-18 10 -10 26 9 16 7 19 -15 19 -19 0 -24 -5 -22 -21 3 -29 -27 -33 -55 -7
-16 13 -19 21 -10 24 6 3 12 21 12 39 0 19 5 37 11 40 5 4 8 12 6 18 -2 7 2
20 10 29 22 25 6 41 -33 33 -21 -3 -34 -2 -34 5 0 11 8 13 54 14 44 1 46 26 2
26 -37 0 -55 13 -34 26 8 5 6 10 -8 15 -17 6 -16 8 9 18 15 6 27 15 27 21 0
13 -23 13 -37 -1 -8 -8 -17 -8 -31 0 -28 15 -62 14 -62 -2 0 -8 10 -19 23 -25
22 -11 22 -11 -5 -11 -15 -1 -30 4 -33 10 -4 5 -18 15 -32 20 -14 5 -27 18
-30 29 -5 20 -43 29 -43 10 0 -5 -4 -10 -10 -10 -5 0 -10 7 -10 16 0 9 -6 14
-12 11 -7 -2 -18 7 -23 20 -6 14 -13 21 -18 17z m-27 -78 c0 -3 -4 -8 -10 -11
-5 -3 -10 -1 -10 4 0 6 5 11 10 11 6 0 10 -2 10 -4z m56 -23 c-10 -10 -19 5
-10 18 6 11 8 11 12 0 2 -7 1 -15 -2 -18z m14 -47 c0 -6 -4 -17 -9 -24 -6 -11
-14 -8 -34 14 -18 19 -23 30 -15 35 14 9 58 -10 58 -25z m170 -16 c0 -5 -4
-10 -10 -10 -5 0 -10 5 -10 10 0 6 5 10 10 10 6 0 10 -4 10 -10z m28 -47 c-10
-2 -26 -2 -35 0 -10 3 -2 5 17 5 19 0 27 -2 18 -5z m63 -58 c1 -16 -17 -17
-30 -2 -9 12 -7 14 9 13 11 0 21 -5 21 -11z m-35 -92 c-11 -11 -19 6 -11 24 8
17 8 17 12 0 3 -10 2 -21 -1 -24z m-1296 -419 c0 -8 4 -22 9 -32 21 -42 50
-151 47 -178 -17 -135 -17 -157 -6 -185 7 -16 10 -33 6 -36 -4 -4 -9 3 -13 15
-3 12 -8 22 -12 22 -3 0 -7 17 -9 38 -1 20 -8 51 -16 67 -28 61 -37 105 -37
191 0 48 -5 96 -10 107 -6 10 -8 26 -4 35 6 15 9 14 26 -7 10 -13 19 -30 19
-37z m1877 -658 c-10 -10 -18 -12 -22 -6 -8 13 18 41 29 30 5 -5 2 -15 -7 -24z
m-87 -127 l-22 -34 7 30 c4 16 12 33 18 37 20 12 19 1 -3 -33z m295 -149 c3
-5 14 -10 23 -10 10 0 33 -8 52 -18 19 -9 54 -24 78 -31 53 -18 68 -36 21 -26
-19 4 -38 11 -44 15 -10 7 -121 50 -130 50 -3 0 -5 -7 -5 -15 0 -19 -21 -19
-46 0 -18 14 -18 14 10 15 24 0 27 2 16 15 -10 12 -10 15 3 15 9 0 19 -4 22
-10z m-545 -40 c0 -5 -4 -10 -10 -10 -5 0 -10 5 -10 10 0 6 5 10 10 10 6 0 10
-4 10 -10z m687 -56 c-3 -3 -12 -4 -19 -1 -8 3 -5 6 6 6 11 1 17 -2 13 -5z
m169 -4 c15 0 24 -6 24 -16 0 -11 -6 -14 -22 -8 -13 4 -34 8 -47 10 -13 1 -29
8 -35 15 -8 9 -3 10 23 5 18 -3 44 -6 57 -6z m-86 -30 c0 -5 -4 -10 -10 -10
-5 0 -10 5 -10 10 0 6 5 10 10 10 6 0 10 -4 10 -10z m-1315 -25 c32 -26 23
-33 -20 -13 -14 6 -25 17 -25 25 0 19 11 16 45 -12z m1390 5 c3 -5 -1 -10 -9
-10 -9 0 -16 5 -16 10 0 6 4 10 9 10 6 0 13 -4 16 -10z m-2480 -10 c3 -5 -1
-10 -10 -10 -9 0 -13 5 -10 10 3 6 8 10 10 10 2 0 7 -4 10 -10z m2595 -23 c19
-6 40 -15 45 -20 15 -13 -44 1 -101 24 -43 17 -45 19 -14 13 19 -3 51 -11 70
-17z m-1460 -16 c0 -6 -4 -13 -10 -16 -5 -3 -10 1 -10 9 0 9 5 16 10 16 6 0
10 -4 10 -9z m-1106 -38 c-4 -14 1 -34 12 -51 10 -15 20 -37 21 -49 2 -25 31
-73 44 -73 5 0 12 -18 15 -40 4 -22 12 -40 18 -40 6 0 20 -18 30 -40 11 -22
25 -40 32 -40 6 0 15 -8 18 -17 5 -11 10 -13 17 -6 6 6 6 19 -1 37 -5 15 -10
41 -9 59 2 63 -20 169 -32 161 -11 -6 -12 17 -1 31 4 6 13 10 20 11 27 2 31 5
37 24 7 23 35 27 35 5 0 -9 16 -23 35 -32 19 -9 34 -23 33 -32 -3 -42 2 -51
25 -46 17 4 36 -9 91 -65 68 -70 91 -81 114 -58 9 9 12 8 12 -5 0 -13 9 -17
35 -17 24 0 35 5 35 15 0 8 5 15 10 15 18 0 11 -29 -10 -40 -11 -6 -22 -21
-26 -35 -3 -13 -14 -31 -25 -41 -10 -9 -21 -32 -25 -50 -3 -19 -10 -34 -14
-34 -4 0 -19 -11 -34 -25 -15 -14 -35 -25 -46 -25 -10 0 -25 -6 -32 -13 -7 -8
-26 -17 -41 -21 -15 -3 -27 -13 -27 -21 0 -8 -3 -15 -8 -15 -13 0 -51 -114
-54 -164 -1 -28 -7 -50 -15 -53 -7 -3 -30 9 -52 26 -21 17 -44 31 -50 31 -6 0
-11 4 -11 9 0 5 -10 13 -22 17 -13 3 -72 57 -131 118 -86 89 -107 116 -104
134 3 13 1 56 -3 95 -6 48 -5 76 3 85 6 8 9 41 7 80 -2 37 -3 93 -3 125 0 31
-3 57 -8 57 -6 0 -6 7 0 18 6 12 22 17 50 17 37 1 40 -1 35 -22z m2896 7 c0
-5 -2 -10 -4 -10 -3 0 -8 5 -11 10 -3 6 -1 10 4 10 6 0 11 -4 11 -10z m160
-42 c0 -11 -42 -10 -78 3 -18 6 -29 16 -26 23 4 10 16 9 54 -3 27 -9 50 -19
50 -23z m-1923 -10 c-3 -8 -6 -5 -6 6 -1 11 2 17 5 13 3 -3 4 -12 1 -19z
m2088 -27 c21 -12 48 -21 60 -21 11 -1 34 -12 50 -26 l30 -25 -30 7 c-16 4
-35 10 -40 15 -6 4 -47 19 -91 33 -43 14 -88 32 -99 40 -17 12 -13 13 31 5 27
-4 67 -17 89 -28z m-3630 -18 c-9 -37 -18 -20 -9 19 4 18 9 27 11 20 3 -7 2
-24 -2 -39z m762 31 c-3 -3 -12 -4 -19 -1 -8 3 -5 6 6 6 11 1 17 -2 13 -5z
m3059 -99 c10 -8 26 -15 35 -15 8 0 30 -11 49 -25 49 -36 12 -32 -47 5 -26 17
-53 30 -59 30 -7 0 -16 5 -19 10 -9 15 19 12 41 -5z m-3837 -103 c-6 -31 -12
-68 -13 -82 -1 -16 -8 -26 -20 -28 -26 -5 -40 12 -27 34 21 38 41 97 41 124 0
33 11 46 23 25 5 -9 3 -39 -4 -73z m-139 1 c-20 -8 -48 -42 -65 -78 -18 -37
-19 -25 -3 27 11 38 34 57 68 57 13 -1 13 -1 0 -6z m2347 -58 c-15 -16 -19
-13 -11 9 3 9 10 13 15 10 5 -3 3 -11 -4 -19z m-27 -26 c0 -5 5 -7 10 -4 11 7
13 -18 4 -52 -9 -34 -20 -28 -31 20 -9 36 -12 39 -18 20 -4 -13 -11 -20 -16
-17 -13 8 14 44 33 44 10 0 18 -5 18 -11z m-2425 -63 c-10 -14 -20 -26 -24
-26 -4 0 -17 -9 -29 -20 -39 -36 -24 -9 20 36 45 47 60 51 33 10z m230 14 c3
-5 1 -10 -4 -10 -6 0 -11 5 -11 10 0 6 2 10 4 10 3 0 8 -4 11 -10z m43 -56
c-4 -3 -12 5 -18 18 -12 22 -12 22 6 6 10 -10 15 -20 12 -24z m-506 4 c-7 -7
-12 -8 -12 -2 0 14 12 26 19 19 2 -3 -1 -11 -7 -17z m2629 -51 c-16 -16 -26 0
-10 19 9 11 15 12 17 4 2 -6 -1 -17 -7 -23z m-2485 -14 c-10 -10 -19 5 -10 18
6 11 8 11 12 0 2 -7 1 -15 -2 -18z m-136 -91 c0 -4 -5 -13 -12 -20 -16 -16 -3
-15 22 0 15 10 22 10 32 0 11 -11 10 -15 -5 -23 -9 -6 -15 -14 -12 -20 4 -5
-2 -12 -11 -16 -10 -4 -28 -18 -40 -32 -12 -14 -26 -23 -30 -18 -4 4 -2 13 4
19 7 7 12 18 12 25 0 11 -5 11 -20 3 -11 -6 -20 -17 -20 -25 0 -8 -9 -19 -20
-25 -35 -19 -24 17 26 81 39 52 74 75 74 51z m180 0 c0 -4 -9 -13 -20 -20 -17
-10 -20 -10 -20 2 0 8 8 17 18 19 9 3 18 5 20 6 1 0 2 -2 2 -7z m290 -12 c9
-17 8 -20 -9 -20 -19 0 -35 23 -24 34 11 11 22 6 33 -14z m4320 -25 c0 -8 -22
-46 -43 -75 l-19 -25 8 30 c4 16 13 36 21 43 7 7 13 18 13 23 0 5 5 9 10 9 6
0 10 -2 10 -5z m-4667 -21 c-3 -8 -8 -14 -12 -14 -4 0 -31 -22 -61 -50 -30
-27 -58 -50 -64 -50 -5 0 -17 -6 -25 -13 -9 -8 -45 -22 -81 -31 -36 -10 -75
-22 -88 -27 -13 -5 -31 -9 -42 -9 -10 0 -33 -12 -50 -26 -17 -15 -34 -23 -38
-19 -10 9 55 60 97 75 19 7 41 19 49 26 7 8 26 14 41 14 35 0 91 19 91 31 0 5
10 7 23 4 18 -5 33 2 60 26 37 33 48 59 25 59 -9 0 -9 3 1 9 8 5 29 9 47 9 24
0 31 -4 27 -14z m547 -50 c0 -14 -4 -23 -10 -19 -5 3 -10 15 -10 26 0 10 5 19
10 19 6 0 10 -12 10 -26z m4210 -10 c0 -3 -7 -12 -15 -20 -16 -17 -18 -14 -9
10 6 15 24 23 24 10z m-176 -71 c-10 -15 -19 -31 -19 -35 0 -4 -6 -13 -12 -19
-7 -7 -13 -17 -13 -21 0 -12 -137 -215 -150 -223 -5 -3 -10 -2 -10 2 0 10 60
95 73 104 5 3 8 9 7 13 -2 12 32 76 41 76 5 0 9 7 9 15 0 8 5 15 10 15 6 0 10
6 10 13 0 8 9 22 20 32 11 10 20 23 20 30 0 13 22 37 28 30 3 -2 -4 -17 -14
-32z m-3904 17 c0 -5 -4 -10 -10 -10 -5 0 -10 5 -10 10 0 6 5 10 10 10 6 0 10
-4 10 -10z m417 -32 c-3 -7 -5 -2 -5 12 0 14 2 19 5 13 2 -7 2 -19 0 -25z
m3623 18 c0 -3 -4 -8 -10 -11 -5 -3 -10 -1 -10 4 0 6 5 11 10 11 6 0 10 -2 10
-4z m-32 -63 c-7 -9 -20 -30 -28 -47 -9 -17 -41 -70 -73 -118 -31 -48 -57 -92
-57 -98 0 -5 -9 -14 -19 -20 -11 -5 -23 -20 -27 -32 -4 -13 -15 -30 -25 -39
-11 -9 -19 -20 -19 -25 0 -12 -44 -74 -52 -74 -14 0 94 176 154 254 13 16 25
34 27 40 2 6 9 18 16 26 7 8 22 31 33 51 42 75 47 84 62 102 9 11 16 14 18 7
2 -6 -2 -18 -10 -27z m-3592 -19 c-3 -9 -9 -33 -12 -55 -4 -21 -10 -39 -15
-39 -11 0 -11 -1 2 60 6 27 15 50 21 50 6 0 7 -7 4 -16z m494 -114 c0 -16 -4
-30 -8 -30 -5 0 -9 14 -9 30 0 17 4 30 9 30 4 0 8 -13 8 -30z m1720 16 c0 -3
-4 -8 -10 -11 -5 -3 -10 -1 -10 4 0 6 5 11 10 11 6 0 10 -2 10 -4z m-2245 -63
c-4 -32 -11 -62 -17 -68 -7 -7 -8 4 -3 35 4 25 8 55 8 68 -1 12 4 22 9 22 7 0
8 -21 3 -57z m425 18 c0 -6 -4 -13 -10 -16 -5 -3 -10 1 -10 9 0 9 5 16 10 16
6 0 10 -4 10 -9z m-450 -122 c0 -11 -4 -18 -10 -14 -5 3 -7 12 -3 20 7 21 13
19 13 -6z m425 -11 c-2 -18 -4 -33 -5 -33 -1 0 -3 -13 -5 -30 -9 -69 -28 -144
-36 -139 -5 3 -7 8 -5 12 2 4 7 25 10 47 8 53 26 147 31 163 8 22 13 12 10
-20z m90 3 c3 -5 1 -12 -5 -16 -5 -3 -10 1 -10 9 0 18 6 21 15 7z m2792 -13
c-3 -8 -6 -5 -6 6 -1 11 2 17 5 13 3 -3 4 -12 1 -19z m-2797 -32 c0 -3 -4 -8
-10 -11 -5 -3 -10 -1 -10 4 0 6 5 11 10 11 6 0 10 -2 10 -4z m-14 -53 c-10
-10 -19 5 -10 18 6 11 8 11 12 0 2 -7 1 -15 -2 -18z m-511 -10 c-20 -81 -35
-163 -35 -200 0 -24 -5 -43 -10 -43 -6 0 -9 18 -6 43 11 118 19 168 27 173 5
3 9 16 9 30 0 13 5 24 11 24 7 0 9 -10 4 -27z m240 -18 c0 -17 10 -44 23 -62
72 -102 -64 -216 -153 -128 -51 52 -37 127 30 159 19 9 35 23 35 31 0 17 29
36 50 32 9 -2 15 -14 15 -32z m255 -31 c0 -8 -5 -12 -10 -9 -6 4 -8 11 -5 16
9 14 15 11 15 -7z m2860 -18 c0 -2 -7 -17 -15 -32 -16 -30 -19 -25 -9 14 5 18
24 33 24 18z m-2867 -38 c-8 -46 -13 -48 -13 -5 0 21 4 37 10 37 5 0 7 -14 3
-32z m-96 -68 c-5 -28 -12 -48 -15 -46 -7 8 8 96 17 96 5 0 4 -23 -2 -50z m81
-55 c-2 -31 -8 -55 -14 -55 -7 0 -8 16 -1 55 6 30 12 55 14 55 2 0 3 -25 1
-55z m-2939 -35 c0 -9 -6 -4 -14 10 -8 14 -14 32 -14 40 0 9 6 4 14 -10 8 -14
14 -32 14 -40z m2660 -9 c12 -8 12 -12 2 -25 -22 -27 -69 -12 -58 18 7 18 34
21 56 7z m184 -16 c-7 -21 -13 -19 -13 6 0 11 4 18 10 14 5 -3 7 -12 3 -20z
m2848 -12 c-8 -15 -10 -15 -11 -2 0 17 10 32 18 25 2 -3 -1 -13 -7 -23z
m-3276 -110 c-3 -65 -8 -134 -10 -153 -1 -19 -6 -123 -10 -230 -4 -107 -8
-213 -10 -235 -2 -22 -6 -121 -10 -220 -5 -98 -11 -191 -16 -205 -7 -23 -7
-22 -8 10 -4 166 36 978 55 1113 11 76 16 33 9 -80z m507 -18 c-2 -38 -4 -82
-5 -97 -1 -15 -6 -26 -12 -25 -12 2 -7 212 6 247 6 19 15 -68 11 -125z m-86 3
c-18 -243 -26 -345 -31 -373 -3 -16 -7 -70 -10 -120 -9 -181 -14 -237 -19
-243 -5 -4 -9 43 -8 78 1 22 14 192 17 220 2 19 9 100 15 180 6 80 13 183 16
230 4 47 6 93 6 103 0 9 4 17 10 17 7 0 9 -29 4 -92z m2825 59 c-10 -9 -11 -8
-5 6 3 10 9 15 12 12 3 -3 0 -11 -7 -18z m-2017 -196 c3 -5 16 -7 27 -4 14 4
25 0 30 -10 9 -14 12 -14 38 1 25 14 33 14 55 3 35 -19 37 -31 24 -119 -12
-84 -25 -102 -73 -102 -36 0 -54 15 -56 45 -1 13 -4 10 -8 -10 -5 -25 -11 -29
-31 -27 -14 2 -37 3 -52 3 -25 0 -28 3 -28 36 0 51 21 166 32 181 12 14 34 16
42 3z m-3554 -55 c0 -5 -7 -1 -15 10 -8 10 -14 24 -14 29 0 6 6 1 14 -9 8 -11
15 -24 15 -30z m2820 35 c0 -6 -7 -61 -15 -123 -8 -62 -15 -139 -16 -171 -1
-32 -7 -60 -12 -64 -13 -8 0 222 19 335 4 28 24 47 24 23z m1034 -24 c16 -12
18 -21 11 -63 -4 -27 -9 -65 -11 -84 -4 -46 -31 -67 -78 -62 -27 3 -36 9 -36
23 0 22 20 169 25 187 6 16 66 16 89 -1z m125 -15 c22 -17 22 -20 10 -110 -10
-83 -14 -95 -35 -102 -31 -12 -81 6 -87 32 -8 27 17 164 33 183 17 20 53 19
79 -3z m128 -13 c15 -7 37 -12 47 -13 12 -1 23 -13 30 -35 l12 -33 12 26 c11
25 31 33 45 20 3 -4 -9 -37 -28 -75 -19 -38 -35 -74 -35 -81 0 -7 -6 -25 -14
-39 -13 -26 -13 -27 18 -32 51 -9 86 -26 86 -42 0 -8 -7 -15 -15 -15 -16 0
-18 -8 -35 -117 -12 -74 -23 -94 -42 -75 -10 10 3 146 17 184 10 26 -24 31
-45 6 l-18 -23 -13 30 c-12 28 -13 28 -16 8 -3 -12 8 -43 22 -67 20 -35 25
-53 20 -76 -9 -41 -48 -57 -81 -35 -13 8 -41 15 -62 15 -21 0 -47 6 -57 14
-17 12 -18 20 -7 112 9 71 17 103 30 114 9 8 18 26 19 40 7 92 17 168 25 183
10 20 44 22 85 6z m277 -57 c3 -5 -1 -35 -9 -68 -8 -32 -15 -75 -15 -94 -1
-50 -11 -62 -51 -58 -40 4 -54 36 -20 45 12 3 24 16 27 32 3 14 10 39 15 55 5
16 9 41 9 56 0 15 3 30 7 33 9 10 31 9 37 -1z m113 -33 c34 -13 18 -39 -23
-39 -28 0 -34 -4 -34 -21 0 -13 8 -23 20 -26 27 -7 22 -37 -8 -41 -33 -5 -30
-48 4 -56 15 -4 29 -5 32 -2 9 10 62 140 62 153 0 18 19 26 34 13 10 -7 17
-49 22 -128 l7 -117 12 60 c7 33 16 84 20 113 8 58 29 78 50 48 8 -11 15 -13
20 -7 3 6 10 11 16 11 11 0 12 -132 0 -180 -8 -38 -5 -60 10 -60 5 0 9 18 9
40 0 46 24 56 40 18 8 -21 9 -21 9 -3 1 11 -8 37 -19 58 -34 62 -21 127 24
127 32 0 50 -24 42 -55 -8 -30 -26 -33 -26 -5 0 11 -4 20 -10 20 -19 0 -10
-51 16 -90 22 -33 25 -46 19 -80 -6 -36 -4 -42 13 -47 30 -7 31 -19 22 -133
-14 -150 -1 -138 -133 -124 -61 7 -139 19 -172 28 -33 8 -94 20 -135 27 -41 6
-85 18 -96 25 -24 15 -25 2 12 209 56 315 48 299 141 264z m-4439 -40 c-3 -8
-7 -3 -11 10 -4 17 -3 21 5 13 5 -5 8 -16 6 -23z m136 -35 c9 -23 7 -36 -3
-30 -12 8 -21 46 -11 46 4 0 11 -7 14 -16z m-74 -85 c0 -6 -4 -7 -10 -4 -5 3
-10 11 -10 16 0 6 5 7 10 4 6 -3 10 -11 10 -16z m14 -35 c3 -8 2 -12 -4 -9 -6
3 -10 10 -10 16 0 14 7 11 14 -7z m2651 -88 c-4 -22 -9 -90 -11 -151 -2 -60
-8 -123 -13 -140 -8 -27 -6 162 3 275 2 19 4 43 5 53 0 11 6 15 12 11 7 -4 9
-21 4 -48z m-2612 14 c3 -11 1 -18 -4 -14 -5 3 -9 12 -9 20 0 20 7 17 13 -6z
m27 -51 c0 -5 -4 -9 -10 -9 -5 0 -10 7 -10 16 0 8 5 12 10 9 6 -3 10 -10 10
-16z m2970 -31 c36 -7 71 -11 78 -9 8 1 19 -2 25 -7 7 -5 34 -10 62 -11 27 -2
53 -5 58 -8 4 -2 60 -8 125 -13 64 -5 139 -16 166 -25 27 -9 61 -18 75 -20 51
-7 127 -26 197 -50 39 -14 93 -27 120 -30 49 -6 154 -34 154 -42 0 -9 -129 18
-395 82 -192 46 -279 63 -354 70 -35 3 -68 8 -72 11 -4 2 -38 6 -76 8 -37 3
-95 7 -128 11 -48 6 -63 4 -73 -8 -17 -20 -8 -25 78 -37 40 -6 105 -17 144
-25 39 -8 98 -15 131 -16 113 -1 411 -66 535 -117 l25 -11 -27 0 c-15 -1 -39
4 -55 10 -15 6 -46 14 -68 19 -22 4 -103 22 -180 40 -77 17 -162 34 -190 36
-27 3 -90 10 -140 15 -49 6 -129 13 -176 16 l-86 6 -13 -101 c-7 -56 -10 -137
-7 -183 6 -96 11 -103 126 -160 36 -18 84 -48 105 -66 22 -18 46 -33 53 -33 7
0 13 -4 13 -10 0 -5 5 -10 12 -10 6 0 19 -6 27 -14 9 -7 36 -24 61 -37 106
-56 290 -185 290 -204 0 -12 -18 -3 -55 30 -22 19 -55 42 -72 50 -18 9 -33 20
-33 25 0 6 -7 10 -16 10 -17 0 -148 81 -158 99 -4 6 -14 11 -22 11 -9 0 -30
11 -47 24 -27 21 -174 105 -270 155 -15 8 -30 26 -34 40 -9 38 -9 203 0 299 8
78 7 82 -11 82 -11 0 -22 -6 -25 -14 -16 -40 -27 -188 -22 -278 6 -122 9 -126
129 -187 47 -24 92 -51 102 -62 9 -10 21 -19 27 -19 5 0 21 -9 36 -19 15 -11
54 -34 86 -52 33 -18 74 -43 91 -56 17 -13 36 -23 42 -23 7 0 12 -5 12 -11 0
-7 -10 -9 -25 -5 -27 7 -201 109 -275 161 -25 18 -82 52 -127 75 -126 65 -123
60 -123 231 -1 97 4 163 15 202 8 32 15 59 15 61 0 2 -9 6 -20 9 -26 7 -26 27
1 34 17 5 20 11 15 33 -9 45 -10 45 144 18z m-170 -8 c0 -5 -7 -10 -16 -10 -8
0 -12 5 -9 10 3 6 10 10 16 10 5 0 9 -4 9 -10z m2400 6 c0 -3 -4 -8 -10 -11
-5 -3 -10 -1 -10 4 0 6 5 11 10 11 6 0 10 -2 10 -4z m-1103 -39 c19 -12 3 -37
-22 -37 -27 0 -39 14 -31 35 5 15 31 16 53 2z m1080 -9 c-3 -8 -6 -5 -6 6 -1
11 2 17 5 13 3 -3 4 -12 1 -19z m-2696 -153 c-9 -39 -9 -38 -10 26 -1 36 2 69
7 73 11 12 14 -55 3 -99z m-914 29 c2 -6 -15 -19 -37 -28 -22 -9 -43 -23 -46
-30 -5 -12 -11 -13 -30 -4 -31 14 -30 22 4 37 15 8 38 20 52 27 28 15 52 15
57 -2z m-7 -64 c10 -6 11 -12 5 -18 -21 -19 -129 -52 -163 -50 l-37 1 33 4
c17 2 32 8 32 12 0 4 18 13 41 20 22 7 43 19 46 27 6 16 21 18 43 4z m2359
-16 c9 -9 -6 -11 -36 -7 -18 3 -33 10 -33 15 0 9 58 2 69 -8z m266 6 c4 -6 -6
-7 -27 -3 -44 8 -48 13 -10 13 17 0 34 -4 37 -10z m-1713 -52 c-2 -29 -8 -69
-12 -88 -7 -30 -8 -28 -5 15 2 28 4 67 4 88 1 20 5 37 10 37 4 0 6 -24 3 -52z
m1758 42 c0 -5 -4 -10 -9 -10 -6 0 -13 5 -16 10 -3 6 1 10 9 10 9 0 16 -4 16
-10z m-1681 -94 c-9 -8 -10 -3 -5 23 3 18 7 43 8 55 1 11 3 1 5 -23 3 -26 -1
-48 -8 -55z m1411 84 c0 -5 -4 -10 -9 -10 -6 0 -13 5 -16 10 -3 6 1 10 9 10 9
0 16 -4 16 -10z m335 0 c18 -8 17 -9 -7 -9 -15 -1 -30 4 -33 9 -7 12 12 12 40
0z m-290 -10 c3 -5 -1 -10 -9 -10 -9 0 -16 5 -16 10 0 6 4 10 9 10 6 0 13 -4
16 -10z m345 -10 c0 -5 -2 -10 -4 -10 -3 0 -8 5 -11 10 -3 6 -1 10 4 10 6 0
11 -4 11 -10z m-4267 -22 c-13 -12 -25 -19 -29 -15 -10 10 16 37 34 37 13 0
12 -4 -5 -22z m3992 12 c18 -8 18 -9 -5 -9 -14 0 -32 4 -40 9 -12 8 -12 10 5
9 11 0 29 -4 40 -9z m180 -35 c66 -15 125 -32 130 -38 13 -12 -56 -1 -155 25
-41 11 -85 20 -97 20 -23 0 -29 9 -17 21 4 4 10 5 13 3 3 -2 60 -16 126 -31z
m541 -22 c11 -15 16 -16 34 -5 17 10 23 10 40 -6 20 -19 20 -19 -3 -29 -18 -9
-38 -7 -80 5 -61 16 -70 27 -34 42 30 12 28 12 43 -7z m-2485 -20 c1 -5 3 -18
4 -31 1 -13 12 -33 24 -45 44 -47 37 -107 -18 -154 -36 -31 -73 -37 -111 -18
-34 18 -50 49 -50 100 0 28 8 41 45 72 25 20 45 43 45 50 0 21 58 45 61 26z
m2304 -34 c10 -10 -74 -1 -115 12 -15 5 1 6 40 3 36 -3 69 -10 75 -15z m-3425
7 c0 -2 -7 -7 -16 -10 -8 -3 -12 -2 -9 4 6 10 25 14 25 6z m-1118 -68 c-9 -20
-11 -18 -11 22 0 40 2 42 11 23 8 -17 8 -29 0 -45z m1058 43 c0 -5 -7 -11 -15
-15 -15 -5 -20 5 -8 17 9 10 23 9 23 -2z m1420 -28 c0 -43 -5 -41 -13 5 -4 18
-2 32 3 32 6 0 10 -16 10 -37z m2237 22 c28 -4 59 -12 68 -19 16 -11 15 -14
-8 -29 -22 -14 -26 -14 -31 -2 -7 18 -42 20 -49 3 -3 -8 -6 -6 -6 5 -1 9 -7
17 -14 17 -19 0 -67 24 -67 33 0 5 12 6 28 3 15 -3 50 -8 79 -11z m-3777 -50
c-25 -13 -52 -24 -60 -24 -8 0 8 11 35 24 65 31 83 31 25 0z m1447 -62 c-2
-16 -4 -3 -4 27 0 30 2 43 4 28 2 -16 2 -40 0 -55z m93 37 c0 -5 -4 -10 -10
-10 -5 0 -10 5 -10 10 0 6 5 10 10 10 6 0 10 -4 10 -10z m2215 -10 c3 -5 1
-10 -4 -10 -6 0 -11 5 -11 10 0 6 2 10 4 10 3 0 8 -4 11 -10z m-4045 -14 c0
-3 -4 -8 -10 -11 -5 -3 -10 -1 -10 4 0 6 5 11 10 11 6 0 10 -2 10 -4z m1817
-28 c-3 -8 -6 -5 -6 6 -1 11 2 17 5 13 3 -3 4 -12 1 -19z m-1677 3 c0 -5 -12
-14 -27 -20 -41 -16 -285 -58 -307 -53 -4 2 -13 -1 -20 -6 -6 -5 -28 -12 -49
-16 -21 -4 -46 -10 -54 -13 -10 -4 -14 -2 -9 5 12 20 129 48 281 68 22 3 72
13 110 24 39 10 71 19 73 19 1 1 2 -3 2 -8z m3900 -1 c0 -5 -4 -10 -10 -10 -5
0 -10 5 -10 10 0 6 5 10 10 10 6 0 10 -4 10 -10z m-2307 -92 c-7 -87 -13 -86
-13 1 0 40 4 70 9 67 4 -3 6 -34 4 -68z m2293 39 c-3 -12 -10 -46 -16 -75 -7
-28 -16 -52 -21 -52 -11 0 -12 14 -2 24 4 4 8 13 8 19 2 42 19 107 27 107 6 0
8 -10 4 -23z m55 -30 c-17 -17 -22 -3 -8 26 11 25 12 25 15 6 2 -12 -1 -26 -7
-32z m-2741 -1 c0 -3 -4 -8 -10 -11 -5 -3 -10 -1 -10 4 0 6 5 11 10 11 6 0 10
-2 10 -4z m480 -26 c0 -5 -4 -10 -10 -10 -5 0 -10 5 -10 10 0 6 5 10 10 10 6
0 10 -4 10 -10z m2250 -35 c-14 -36 -22 -28 -14 14 4 19 10 29 16 23 5 -5 4
-20 -2 -37z m-4580 22 c0 -7 -14 -20 -32 -28 -42 -18 -48 -39 -12 -39 l27 0
-26 -26 c-14 -14 -31 -23 -37 -19 -6 4 -19 0 -28 -8 -25 -22 -88 0 -84 28 5
27 41 65 62 65 9 0 20 3 24 7 10 10 67 30 89 32 9 0 17 -5 17 -12z m150 3 c-8
-5 -19 -10 -25 -10 -5 0 -3 5 5 10 8 5 20 10 25 10 6 0 3 -5 -5 -10z m1940 -9
c0 -23 -28 -35 -46 -20 -24 20 -16 39 16 39 23 0 30 -5 30 -19z m1495 9 c4 -6
8 -55 10 -110 3 -83 2 -100 -10 -100 -17 0 -20 21 -6 36 13 12 -16 74 -34 74
-17 0 -21 -15 -21 -75 1 -43 4 -50 21 -51 11 -1 23 -2 28 -3 4 -1 -2 -18 -13
-38 -28 -52 -26 -73 5 -73 14 0 25 -4 25 -10 0 -5 -20 -10 -45 -10 -32 0 -57
8 -85 26 -22 15 -40 31 -40 35 0 15 18 10 24 -7 11 -29 21 -5 32 79 16 110 43
209 62 225 19 15 39 16 47 2z m-1738 -30 c2 -11 -2 -20 -7 -20 -6 0 -10 12
-10 27 0 29 12 24 17 -7z m-1810 -26 c-3 -3 -12 -4 -19 -1 -8 3 -5 6 6 6 11 1
17 -2 13 -5z m2203 -13 c0 -6 -4 -13 -10 -16 -5 -3 -10 1 -10 9 0 9 5 16 10
16 6 0 10 -4 10 -9z m2325 0 c3 -5 1 -12 -5 -16 -5 -3 -10 1 -10 9 0 18 6 21
15 7z m-2724 -82 c-2 -88 -11 -87 -11 1 0 40 3 70 6 67 4 -3 6 -34 5 -68z
m2659 61 c0 -5 -4 -10 -10 -10 -5 0 -10 5 -10 10 0 6 5 10 10 10 6 0 10 -4 10
-10z m-2273 -57 c-3 -10 -5 -2 -5 17 0 19 2 27 5 18 2 -10 2 -26 0 -35z m98
27 c3 -5 1 -10 -4 -10 -6 0 -11 5 -11 10 0 6 2 10 4 10 3 0 8 -4 11 -10z
m2211 -31 c-13 -28 -15 -30 -16 -11 0 13 6 29 13 36 18 21 19 13 3 -25z
m-3386 -14 c-7 -9 -15 -13 -17 -11 -7 7 7 26 19 26 6 0 6 -6 -2 -15z m2077
-31 c38 -25 105 -80 150 -122 45 -42 88 -79 96 -84 8 -4 49 -8 91 -10 43 -1
79 -5 82 -9 2 -3 -23 -9 -56 -13 -91 -10 -128 5 -213 89 -72 71 -194 165 -216
165 -6 0 -11 7 -11 15 0 21 2 20 77 -31z m1253 26 c0 -5 -4 -10 -10 -10 -5 0
-10 5 -10 10 0 6 5 10 10 10 6 0 10 -4 10 -10z m-4543 -47 c-3 -10 -5 -2 -5
17 0 19 2 27 5 18 2 -10 2 -26 0 -35z m1351 -55 c-2 -59 -7 -103 -13 -103 -5
0 -9 18 -9 40 3 144 5 165 14 165 7 0 10 -37 8 -102z m939 70 c-3 -8 -6 -5 -6
6 -1 11 2 17 5 13 3 -3 4 -12 1 -19z m-2344 -45 c-4 -21 -7 -96 -6 -166 2
-145 11 -167 67 -167 27 -1 29 -2 12 -11 -29 -18 -95 8 -103 39 -7 27 3 260
13 311 4 17 11 31 16 31 5 0 6 -16 1 -37z m2345 -54 c-2 -48 -7 -79 -13 -77
-5 2 -8 21 -6 43 2 22 5 51 6 65 4 46 5 50 11 50 3 0 4 -36 2 -81z m429 59
c-3 -8 -6 -5 -6 6 -1 11 2 17 5 13 3 -3 4 -12 1 -19z m-1919 -55 c8 -26 18
-58 23 -71 17 -43 10 -87 -21 -128 -29 -40 -94 -72 -106 -53 -3 5 2 9 12 9 15
0 15 2 0 25 -18 27 -22 100 -6 110 6 3 10 -1 10 -9 0 -9 7 -16 16 -16 14 0 15
2 3 18 -8 9 -18 20 -24 25 -6 4 3 19 23 38 32 29 33 31 21 66 -9 28 -9 37 2
44 20 12 33 -4 47 -58z m1842 45 c0 -16 -3 -19 -11 -11 -6 6 -8 16 -5 22 11
17 16 13 16 -11z m-2645 -68 c10 -136 16 -180 27 -186 5 -4 35 -10 66 -14 131
-18 268 -44 277 -53 6 -6 -2 -7 -25 -3 -19 3 -64 8 -98 11 -35 3 -80 9 -100
14 -21 5 -61 12 -89 16 -29 4 -55 10 -57 14 -3 4 -6 36 -7 72 -1 35 -6 89 -10
119 -8 48 -4 98 7 88 2 -2 6 -37 9 -78z m4560 70 c3 -5 1 -10 -4 -10 -6 0 -11
5 -11 10 0 6 2 10 4 10 3 0 8 -4 11 -10z m-1842 -57 c-3 -18 -10 -33 -15 -33
-6 0 -8 10 -4 23 3 12 6 31 6 42 0 11 3 15 9 10 5 -6 7 -25 4 -42z m757 31 c0
-8 -4 -12 -10 -9 -5 3 -10 10 -10 16 0 5 5 9 10 9 6 0 10 -7 10 -16z m-1570
-10 c0 -8 -5 -12 -10 -9 -6 4 -8 11 -5 16 9 14 15 11 15 -7z m2490 6 c0 -5 -5
-10 -11 -10 -5 0 -7 5 -4 10 3 6 8 10 11 10 2 0 4 -4 4 -10z m-1755 -10 c3 -5
1 -10 -4 -10 -6 0 -11 5 -11 10 0 6 2 10 4 10 3 0 8 -4 11 -10z m1685 -4 c0
-11 -19 -15 -25 -6 -3 5 1 10 9 10 9 0 16 -2 16 -4z m-1950 -57 c0 -27 -4 -48
-9 -45 -10 6 -6 96 4 96 3 0 5 -23 5 -51z m1910 42 c0 -5 -21 -11 -47 -14
-136 -15 -174 -19 -237 -21 -37 -2 -80 0 -95 4 -34 11 -30 12 54 15 70 2 258
15 262 18 7 7 63 4 63 -2z m-1640 -27 c0 -8 -4 -14 -10 -14 -5 0 -10 9 -10 21
0 11 5 17 10 14 6 -3 10 -13 10 -21z m-743 -14 c-2 -29 -17 -24 -17 6 0 14 4
23 9 19 6 -3 9 -14 8 -25z m1961 21 c18 -11 -19 -17 -117 -20 -42 -1 -71 1
-67 7 3 5 33 10 68 11 34 1 64 4 67 6 7 8 35 5 49 -4z m-1227 -84 c-1 -23 -6
-60 -11 -82 -11 -52 -19 -172 -25 -370 -2 -88 -7 -216 -11 -285 -3 -69 -7
-191 -8 -272 l-1 -147 28 -16 c15 -9 27 -21 27 -26 0 -5 24 -34 54 -64 30 -30
51 -57 47 -60 -8 -4 -170 150 -172 164 -6 43 -5 300 2 416 5 83 11 220 14 305
2 85 13 229 24 319 12 91 21 167 21 170 0 2 3 1 7 -3 4 -4 6 -26 4 -49z m79
44 c0 -6 -4 -13 -10 -16 -5 -3 -10 1 -10 9 0 9 5 16 10 16 6 0 10 -4 10 -9z
m1610 -1 c0 -5 -15 -10 -32 -9 -28 0 -30 2 -13 9 28 12 45 12 45 0z m-80 -10
c0 -5 -5 -10 -11 -10 -5 0 -7 5 -4 10 3 6 8 10 11 10 2 0 4 -4 4 -10z m-2350
-21 c0 -11 -4 -18 -10 -14 -5 3 -7 12 -3 20 7 21 13 19 13 -6z m2260 0 c-25
-10 -121 -16 -311 -19 -125 -2 -127 -2 -111 8 7 5 36 10 64 11 29 1 53 3 54 4
2 1 76 3 166 4 115 1 156 -1 138 -8z m-1870 -26 c0 -16 -5 -35 -10 -43 -7 -11
-10 -4 -10 28 0 23 5 42 10 42 6 0 10 -12 10 -27z m421 -31 c-3 -54 -21 -84
-21 -35 0 41 11 95 18 88 3 -3 5 -27 3 -53z m-331 4 c0 -3 -4 -8 -10 -11 -5
-3 -10 -1 -10 4 0 6 5 11 10 11 6 0 10 -2 10 -4z m-100 -72 c0 -8 -5 -12 -10
-9 -6 4 -8 11 -5 16 9 14 15 11 15 -7z m87 -26 c-3 -8 -6 -5 -6 6 -1 11 2 17
5 13 3 -3 4 -12 1 -19z m329 0 c-3 -13 -6 -32 -6 -42 0 -12 -3 -16 -9 -10 -11
12 -2 74 11 74 6 0 8 -10 4 -22z m-413 -14 c-2 -13 -16 -192 -18 -244 -4 -60
-4 -60 -16 -60 -9 0 -8 47 6 165 3 22 5 66 6 98 0 41 4 57 12 54 7 -3 11 -8
10 -13z m2227 6 c0 -5 -5 -10 -11 -10 -5 0 -7 5 -4 10 3 6 8 10 11 10 2 0 4
-4 4 -10z m-4080 -20 c0 -5 -4 -10 -9 -10 -6 0 -13 5 -16 10 -3 6 1 10 9 10 9
0 16 -4 16 -10z m1936 -17 c-10 -10 -19 5 -10 18 6 11 8 11 12 0 2 -7 1 -15
-2 -18z m-2099 -14 c29 -6 56 -15 59 -21 5 -7 -3 -9 -22 -5 -16 4 -63 11 -104
17 -107 15 -126 20 -111 29 12 8 77 0 178 -20z m4333 10 c0 -5 -4 -9 -10 -9
-5 0 -10 7 -10 16 0 8 5 12 10 9 6 -3 10 -10 10 -16z m-4100 -3 c0 -8 16 -31
35 -52 l35 -36 -32 6 c-18 3 -35 10 -39 14 -11 12 -18 82 -8 82 5 0 9 -6 9
-14z m4005 5 c3 -5 1 -12 -5 -16 -5 -3 -10 1 -10 9 0 18 6 21 15 7z m-3910
-11 c18 -8 18 -9 -5 -8 -14 0 -36 4 -50 8 -24 8 -24 8 5 8 17 0 39 -3 50 -8z
m1294 -32 c0 -13 -4 -43 -8 -68 -8 -44 -9 -44 -10 23 0 39 3 67 9 67 6 0 10
-10 9 -22z m797 -16 c-12 -63 -17 -188 -20 -530 l-3 -364 23 -10 c13 -6 24
-17 24 -24 0 -6 7 -14 15 -18 8 -3 15 -10 15 -16 0 -19 -25 -10 -65 24 l-40
34 2 93 c4 385 13 686 22 749 6 41 11 81 11 88 0 7 5 10 11 7 5 -4 8 -19 5
-33z m-2241 8 c18 -8 17 -9 -7 -9 -15 -1 -30 4 -33 9 -7 12 12 12 40 0z m4041
-58 c-12 -11 -16 6 -9 39 l8 34 3 -33 c2 -19 1 -36 -2 -40z m94 28 c0 -5 -4
-10 -10 -10 -5 0 -10 5 -10 10 0 6 5 10 10 10 6 0 10 -4 10 -10z m-3893 -17
c5 -15 -49 -23 -66 -10 -12 10 -9 13 15 18 35 8 47 6 51 -8z m83 -9 c0 -2 -14
-4 -31 -4 -16 0 -28 4 -25 9 5 8 56 3 56 -5z m3797 -16 c-3 -8 -6 -5 -6 6 -1
11 2 17 5 13 3 -3 4 -12 1 -19z m-90 -30 c-3 -8 -6 -5 -6 6 -1 11 2 17 5 13 3
-3 4 -12 1 -19z m2188 12 c8 -12 1 -14 -95 -30 -41 -7 -90 -19 -109 -27 -18
-7 -45 -13 -60 -12 l-26 0 25 10 c38 16 181 57 215 62 17 2 33 5 37 6 4 0 10
-4 13 -9z m-6555 -10 c0 -5 -2 -10 -4 -10 -3 0 -8 5 -11 10 -3 6 -1 10 4 10 6
0 11 -4 11 -10z m-71 -47 c-1 -38 -1 -38 -9 -9 -8 27 -6 46 6 46 2 0 4 -17 3
-37z m71 11 c0 -8 -4 -12 -10 -9 -5 3 -10 10 -10 16 0 5 5 9 10 9 6 0 10 -7
10 -16z m1768 -49 c-1 -36 -5 -65 -10 -65 -4 0 -8 8 -8 19 0 28 12 111 16 111
2 0 3 -29 2 -65z m2598 18 c-4 -27 -9 -61 -11 -78 -3 -16 -7 -58 -10 -92 -2
-34 -7 -72 -9 -85 -3 -13 -8 -41 -11 -63 -2 -22 -10 -68 -17 -102 -9 -50 -14
-60 -25 -51 -10 8 -10 14 -2 24 6 7 8 18 4 24 -4 6 -2 17 4 24 6 7 13 47 15
89 3 42 7 80 10 85 2 4 7 32 10 62 3 30 10 84 16 120 5 36 10 71 10 78 0 6 5
12 11 12 7 0 9 -16 5 -47z m94 9 c0 -13 -12 -22 -22 -16 -10 6 -1 24 13 24 5
0 9 -4 9 -8z m1790 -11 c0 -5 -12 -11 -27 -14 -79 -16 -84 -16 -38 2 59 23 65
24 65 12z m-1804 -43 c-3 -13 -8 -61 -11 -108 -3 -47 -12 -116 -20 -155 -7
-38 -19 -103 -25 -142 -12 -71 -32 -105 -24 -40 5 50 13 99 20 129 8 37 15
107 15 141 0 15 3 27 7 27 4 0 8 12 8 28 3 63 17 142 26 142 4 0 6 -10 4 -22z
m-4505 -1 c-1 -12 -15 -9 -19 4 -3 6 1 10 8 8 6 -3 11 -8 11 -12z m71 -38 c1
-28 0 -53 -4 -56 -5 -2 -8 4 -9 14 -1 10 -3 35 -4 56 -2 20 0 37 5 37 4 0 10
-23 12 -51z m2129 -2 c-10 -9 -11 -8 -5 6 3 10 9 15 12 12 3 -3 0 -11 -7 -18z
m-2191 -2 c0 -8 -4 -15 -10 -15 -5 0 -10 7 -10 15 0 8 5 15 10 15 6 0 10 -7
10 -15z m0 -40 c0 -8 -4 -15 -10 -15 -5 0 -10 7 -10 15 0 8 5 15 10 15 6 0 10
-7 10 -15z m2190 -31 c0 -19 -4 -33 -8 -30 -4 2 -7 17 -6 33 3 33 3 33 9 33 3
0 5 -16 5 -36z m-380 12 c0 -3 -4 -8 -10 -11 -5 -3 -10 -1 -10 4 0 6 5 11 10
11 6 0 10 -2 10 -4z m-1736 -53 c9 -58 7 -123 -4 -123 -5 0 -10 19 -11 43 -1
23 -3 59 -4 80 -2 20 0 37 4 37 5 0 11 -17 15 -37z m1723 -50 c-2 -16 -4 -3
-4 27 0 30 2 43 4 28 2 -16 2 -40 0 -55z m390 -13 c1 -28 -1 -50 -6 -50 -5 0
-9 25 -10 57 -1 68 11 63 16 -7z m-2170 4 c-9 -9 -28 6 -21 18 4 6 10 6 17 -1
6 -6 8 -13 4 -17z m5 -54 c3 -17 1 -33 -4 -36 -4 -3 -8 11 -8 30 0 44 6 47 12
6z m1773 -22 c-7 -68 -15 -74 -15 -11 0 43 5 63 17 63 1 0 1 -23 -2 -52z m395
2 c0 -5 -4 -10 -10 -10 -5 0 -10 5 -10 10 0 6 5 10 10 10 6 0 10 -4 10 -10z
m-2104 -36 c11 -65 13 -124 5 -124 -9 0 -13 20 -24 118 -4 34 14 40 19 6z
m-42 -124 c5 -47 4 -70 -3 -70 -6 0 -11 1 -11 3 0 1 -2 47 -5 102 -5 109 7 87
19 -35z m2007 78 c3 -119 -3 -170 -24 -194 -12 -14 -27 -22 -35 -19 -7 3 -20
-1 -28 -9 -16 -17 -51 -10 -63 13 -9 15 -14 53 -12 78 2 18 61 83 76 83 7 0
17 15 20 33 9 40 22 57 46 57 15 0 19 -8 20 -42z m-270 -29 c-9 -23 -10 -22
-10 11 -1 23 2 31 9 24 7 -7 7 -19 1 -35z m-2727 -29 c92 -29 330 -90 351 -90
13 0 27 -4 30 -10 3 -5 0 -10 -7 -10 -15 0 -233 53 -333 81 -38 10 -78 19 -87
19 -9 0 -20 5 -23 10 -8 13 29 13 69 0z m5292 -52 c-8 -47 -28 -220 -28 -238
0 -8 -4 -34 -9 -56 -5 -23 -10 -56 -13 -75 -11 -93 -19 -129 -27 -129 -10 0
-7 36 11 160 12 88 40 327 40 353 0 9 7 17 15 17 12 0 15 -8 11 -32z m-4247
-7 c-15 -5 -22 6 -14 19 6 9 10 9 16 -1 5 -8 4 -15 -2 -18z m11 -31 c0 -5 -2
-10 -4 -10 -3 0 -8 5 -11 10 -3 6 -1 10 4 10 6 0 11 -4 11 -10z m4310 1 c0 -6
-4 -13 -10 -16 -5 -3 -10 1 -10 9 0 9 5 16 10 16 6 0 10 -4 10 -9z m-4925 -31
c8 -13 -15 -13 -35 0 -12 8 -11 10 7 10 12 0 25 -4 28 -10z m559 -22 c3 -17 2
-36 -3 -41 -5 -5 -10 8 -13 32 -4 48 7 55 16 9z m64 -13 c0 -19 -4 -35 -8 -35
-9 0 -20 61 -13 73 9 16 21 -5 21 -38z m4296 -2 c-3 -21 -9 -65 -14 -98 -5
-33 -12 -79 -16 -103 -3 -23 -10 -40 -15 -36 -5 3 -8 8 -5 12 2 4 7 45 11 92
4 47 8 94 10 105 1 11 3 30 4 43 0 12 7 22 15 22 11 0 14 -9 10 -37z m-4834
17 c12 -8 11 -10 -7 -10 -12 0 -25 5 -28 10 -8 13 15 13 35 0z m2600 0 c0 -5
-4 -10 -10 -10 -5 0 -10 5 -10 10 0 6 5 10 10 10 6 0 10 -4 10 -10z m-2473
-36 c-3 -3 -12 -4 -19 -1 -8 3 -5 6 6 6 11 1 17 -2 13 -5z m353 -34 c0 -5 -2
-10 -4 -10 -3 0 -8 5 -11 10 -3 6 -1 10 4 10 6 0 11 -4 11 -10z m65 -9 c3 -5
1 -12 -5 -16 -5 -3 -10 1 -10 9 0 18 6 21 15 7z m1880 -11 c0 -8 -10 -16 -22
-18 -22 -3 -32 16 -16 32 12 11 38 2 38 -14z m-1880 -29 c3 -5 1 -12 -5 -16
-5 -3 -10 1 -10 9 0 18 6 21 15 7z m-59 -48 c-10 -10 -19 5 -10 18 6 11 8 11
12 0 2 -7 1 -15 -2 -18z m64 -14 c0 -6 -4 -7 -10 -4 -5 3 -10 11 -10 16 0 6 5
7 10 4 6 -3 10 -11 10 -16z m-50 -18 c0 -6 -4 -13 -10 -16 -5 -3 -10 1 -10 9
0 9 5 16 10 16 6 0 10 -4 10 -9z m49 -13 c-1 -1 3 -13 10 -26 13 -25 19 -158
6 -155 -9 3 -10 14 -19 127 -3 38 -3 66 0 63 3 -3 5 -7 3 -9z m1121 -14 c0 -8
-4 -14 -10 -14 -5 0 -10 9 -10 21 0 11 5 17 10 14 6 -3 10 -13 10 -21z m-1163
-44 c0 -16 -4 -30 -9 -30 -4 0 -8 6 -8 14 0 8 -3 21 -6 30 -4 10 -1 16 8 16
10 0 15 -11 15 -30z m2080 8 c-3 -8 -6 -5 -6 6 -1 11 2 17 5 13 3 -3 4 -12 1
-19z m578 -8 c11 -16 23 -30 27 -30 8 0 45 -29 80 -62 10 -10 20 -18 22 -18 3
0 20 -13 38 -30 18 -16 38 -30 44 -30 7 0 14 -4 16 -8 2 -5 24 -22 49 -40 26
-17 60 -45 75 -62 16 -16 35 -30 41 -30 7 0 13 -4 13 -10 0 -5 -3 -10 -6 -10
-11 0 -139 88 -158 109 -11 12 -23 21 -29 21 -5 0 -26 14 -47 30 -21 17 -40
30 -44 30 -5 0 -70 66 -139 140 -17 17 -23 30 -15 30 7 0 22 -14 33 -30z
m1628 -57 c-7 -65 -40 -184 -55 -199 -14 -14 -158 -64 -180 -64 -21 1 105 60
127 60 33 0 58 24 57 56 0 16 4 31 9 34 4 3 10 21 13 40 12 95 19 129 26 125
4 -3 5 -26 3 -52z m-4283 -4 c0 -11 -4 -17 -10 -14 -5 3 -10 13 -10 21 0 8 5
14 10 14 6 0 10 -9 10 -21z m2682 -38 c27 -26 35 -41 20 -41 -12 0 -102 81
-102 92 0 13 45 -16 82 -51z m-1002 4 c0 -8 -4 -15 -10 -15 -5 0 -10 7 -10 15
0 8 5 15 10 15 6 0 10 -7 10 -15z m-1672 -50 c1 -30 -3 -55 -7 -55 -9 0 -20
98 -12 106 13 12 18 -2 19 -51z m62 -16 c0 -11 -4 -17 -10 -14 -5 3 -10 13
-10 21 0 8 5 14 10 14 6 0 10 -9 10 -21z m4107 -27 c-9 -10 -57 -28 -109 -42
-51 -12 -97 -27 -102 -31 -6 -5 -17 -9 -25 -9 -9 0 -28 -6 -42 -14 -56 -29
-179 -62 -179 -47 0 5 19 12 42 16 23 4 57 16 75 26 18 10 36 19 41 20 4 0 21
6 37 14 17 7 64 21 105 30 41 10 79 21 85 26 5 5 19 9 31 9 14 0 25 8 29 21 5
15 10 18 18 10 7 -7 6 -16 -6 -29z m-1424 14 c20 -16 22 -26 4 -26 -7 0 -18 9
-25 20 -14 23 -5 26 21 6z m-2673 -51 c0 -19 -4 -35 -10 -35 -5 0 -10 9 -10
19 0 11 -3 26 -6 35 -4 11 -1 16 10 16 12 0 16 -10 16 -35z m2740 -8 c14 -12
48 -37 77 -55 28 -18 54 -39 57 -47 11 -30 -18 -13 -114 65 -23 19 -50 40 -59
47 -14 10 -14 12 -1 13 8 0 26 -10 40 -23z m-2805 4 c3 -5 1 -12 -5 -16 -5 -3
-10 1 -10 9 0 18 6 21 15 7z m5 -45 c0 -8 -4 -18 -10 -21 -5 -3 -10 3 -10 14
0 12 5 21 10 21 6 0 10 -6 10 -14z m1649 -13 c0 -25 -1 -25 -8 -8 -5 11 -7 23
-4 28 8 14 13 7 12 -20z m398 -5 c-3 -7 -5 -2 -5 12 0 14 2 19 5 13 2 -7 2
-19 0 -25z m-1985 -10 c-9 -9 -12 -7 -12 12 0 19 3 21 12 12 9 -9 9 -15 0 -24z
m-52 -44 c0 -35 -17 -30 -18 6 0 17 4 28 9 25 5 -4 9 -17 9 -31z m70 10 c0 -9
-5 -14 -12 -12 -18 6 -21 28 -4 28 9 0 16 -7 16 -16z m3906 1 c-27 -21 -53
-20 -36 0 7 8 22 15 34 15 21 -1 21 -1 2 -15z m-1931 -5 c3 -5 1 -10 -4 -10
-6 0 -11 5 -11 10 0 6 2 10 4 10 3 0 8 -4 11 -10z m1031 -15 c30 -28 16 -35
-16 -8 -18 16 -26 33 -16 33 3 0 17 -11 32 -25z m591 9 c-3 -3 -12 -4 -19 -1
-8 3 -5 6 6 6 11 1 17 -2 13 -5z m240 -9 c-10 -7 -55 -25 -100 -40 -45 -14
-90 -30 -99 -35 -10 -6 -30 -10 -45 -9 -30 0 -27 2 62 34 141 52 172 63 185
64 12 0 11 -3 -3 -14z m-287 -4 c0 -5 -14 -14 -31 -20 -39 -13 -39 -13 -39 -1
0 6 11 10 24 10 14 0 28 5 31 10 8 12 15 13 15 1z m-3550 -17 c0 -8 -4 -12
-10 -9 -5 3 -10 10 -10 16 0 5 5 9 10 9 6 0 10 -7 10 -16z m2918 -5 c9 -11 43
-39 75 -61 31 -23 57 -45 57 -49 0 -5 7 -9 15 -9 8 0 15 -4 15 -10 0 -15 -12
-12 -40 10 -14 12 -55 41 -92 66 -36 25 -69 52 -72 60 -8 22 22 17 42 -7z
m547 -8 c-15 -14 -75 -24 -75 -12 0 9 24 17 65 20 11 0 15 -3 10 -8z m-3391
-28 l41 -13 -48 5 c-55 5 -70 12 -61 26 3 5 10 6 16 3 6 -4 29 -13 52 -21z
m2986 12 c0 -9 -6 -12 -15 -9 -8 4 -15 10 -15 15 0 5 7 9 15 9 8 0 15 -7 15
-15z m-3110 -28 c11 -24 23 -34 50 -39 19 -3 82 -20 140 -37 58 -17 112 -33
120 -35 8 -2 27 -7 42 -11 16 -4 25 -11 23 -16 -3 -4 -16 -4 -28 1 -12 6 -51
16 -87 24 -36 8 -90 21 -120 30 -30 9 -59 18 -65 19 -5 2 -25 7 -43 11 -25 6
-37 16 -48 42 -16 38 -17 44 -6 44 4 0 14 -15 22 -33z m3420 23 c0 -5 -4 -10
-10 -10 -5 0 -10 5 -10 10 0 6 5 10 10 10 6 0 10 -4 10 -10z m-40 -10 c0 -5
-7 -10 -16 -10 -8 0 -12 5 -9 10 3 6 10 10 16 10 5 0 9 -4 9 -10z m-230 -10
c0 -5 -7 -10 -15 -10 -8 0 -15 5 -15 10 0 6 7 10 15 10 8 0 15 -4 15 -10z
m176 -8 c-7 -12 -105 -36 -113 -28 -3 3 0 8 8 10 108 34 116 35 105 18z
m-3058 -12 c28 -7 52 -15 52 -20 0 -10 -132 19 -145 32 -7 7 -2 9 15 5 14 -4
49 -11 78 -17z m2912 -11 c0 -6 -4 -7 -10 -4 -5 3 -10 11 -10 16 0 6 5 7 10 4
6 -3 10 -11 10 -16z m380 6 c0 -9 -51 -25 -61 -19 -17 10 1 24 32 24 16 0 29
-2 29 -5z m-3181 -21 c17 -4 31 -10 31 -15 0 -10 -61 0 -74 12 -12 11 -1 11
43 3z m3096 -3 c-7 -12 -64 -25 -72 -17 -7 7 35 24 60 25 10 1 16 -3 12 -8z
m-2951 -33 c22 -6 46 -15 51 -20 12 -11 -47 -1 -108 18 -37 11 -39 13 -13 13
16 1 47 -4 70 -11z m2786 -8 c0 -5 -5 -10 -11 -10 -5 0 -7 5 -4 10 3 6 8 10
11 10 2 0 4 -4 4 -10z m-1680 -10 c0 -5 -4 -10 -10 -10 -5 0 -10 5 -10 10 0 6
5 10 10 10 6 0 10 -4 10 -10z m1556 -5 c15 -11 16 -14 3 -15 -8 0 -24 7 -35
15 -15 11 -16 14 -3 15 8 0 24 -7 35 -15z m94 5 c0 -5 -10 -10 -22 -10 -19 0
-20 2 -8 10 19 13 30 13 30 0z m-2620 -20 c0 -5 -4 -10 -10 -10 -5 0 -10 5
-10 10 0 6 5 10 10 10 6 0 10 -4 10 -10z m1370 0 c0 -5 -4 -10 -10 -10 -5 0
-10 5 -10 10 0 6 5 10 10 10 6 0 10 -4 10 -10z m-1290 -20 c0 -5 -4 -10 -9
-10 -6 0 -13 5 -16 10 -3 6 1 10 9 10 9 0 16 -4 16 -10z m30 -10 c0 -5 -2 -10
-4 -10 -3 0 -8 5 -11 10 -3 6 -1 10 4 10 6 0 11 -4 11 -10z m-313 -6 c-3 -3
-12 -4 -19 -1 -8 3 -5 6 6 6 11 1 17 -2 13 -5z m53 -14 c0 -5 -7 -10 -15 -10
-8 0 -15 5 -15 10 0 6 7 10 15 10 8 0 15 -4 15 -10z m75 -22 c7 -7 1 -8 -20
-4 -16 4 -34 12 -40 18 -7 7 -1 8 20 4 17 -4 35 -12 40 -18z m1432 -10 c-3 -8
-6 -5 -6 6 -1 11 2 17 5 13 3 -3 4 -12 1 -19z m-1352 -9 c16 -16 -30 -10 -51
6 -18 14 -17 15 11 9 17 -4 34 -11 40 -15z m71 -14 c18 -14 17 -15 -11 -9 -37
8 -57 24 -29 24 11 0 29 -7 40 -15z m891 -7 c-3 -8 -6 -5 -6 6 -1 11 2 17 5
13 3 -3 4 -12 1 -19z m-1754 -23 c-6 -17 -25 -15 -31 3 -2 7 5 12 17 12 14 0
19 -5 14 -15z m1748 -77 c-4 -35 -6 -38 -9 -15 -3 26 3 57 10 57 2 0 1 -19 -1
-42z m489 32 c0 -5 -2 -10 -4 -10 -3 0 -8 5 -11 10 -3 6 -1 10 4 10 6 0 11 -4
11 -10z m-90 -106 c0 -8 -5 -12 -10 -9 -6 4 -8 11 -5 16 9 14 15 11 15 -7z
m77 -71 c-3 -10 -5 -2 -5 17 0 19 2 27 5 18 2 -10 2 -26 0 -35z m-90 -10 c-3
-10 -5 -2 -5 17 0 19 2 27 5 18 2 -10 2 -26 0 -35z m-397 21 c0 -8 -5 -12 -10
-9 -6 4 -8 11 -5 16 9 14 15 11 15 -7z m-13 -46 c-3 -8 -6 -5 -6 6 -1 11 2 17
5 13 3 -3 4 -12 1 -19z m416 -93 c4 -24 4 -50 2 -57 -5 -14 -12 -66 -14 -107
-2 -46 -12 -13 -16 51 -4 73 4 158 15 158 4 0 10 -20 13 -45z m87 13 c0 -21
-3 -29 -10 -22 -5 5 -7 19 -4 32 9 31 14 27 14 -10z m-1042 -37 c3 -8 -1 -12
-9 -9 -7 2 -15 10 -17 17 -3 8 1 12 9 9 7 -2 15 -10 17 -17z m545 -22 c7 -1
22 0 35 1 13 1 29 -3 36 -9 8 -6 24 -7 42 -3 37 10 64 5 64 -13 0 -21 -12 -25
-92 -29 -89 -5 -108 -12 -109 -40 -1 -14 -4 -10 -11 13 -5 19 -6 46 -2 60 4
14 8 31 9 36 5 26 8 28 12 8 2 -13 10 -23 16 -24z m484 -1 c-3 -8 -6 -5 -6 6
-1 11 2 17 5 13 3 -3 4 -12 1 -19z m-816 4 c0 10 2 10 6 1 2 -7 13 -13 24 -13
10 0 19 -6 19 -14 0 -16 -37 -28 -46 -15 -3 6 -15 7 -26 3 -24 -7 -42 14 -26
33 7 9 15 10 29 2 14 -7 19 -6 20 3z m695 -1 c-7 -11 -46 -21 -46 -12 0 13 13
21 32 21 11 0 17 -4 14 -9z m84 -1 c0 -5 -4 -10 -10 -10 -5 0 -10 5 -10 10 0
6 5 10 10 10 6 0 10 -4 10 -10z m-510 -40 c0 -5 -4 -10 -10 -10 -5 0 -10 5
-10 10 0 6 5 10 10 10 6 0 10 -4 10 -10z m285 -92 c5 -20 19 -46 30 -58 31
-34 27 -117 -8 -163 -32 -43 -70 -52 -117 -28 -75 38 -75 149 0 199 26 17 34
29 32 47 -2 14 4 27 15 34 26 15 37 9 48 -31z m172 -50 c-3 -7 -5 -2 -5 12 0
14 2 19 5 13 2 -7 2 -19 0 -25z m3 -118 c0 -5 -5 -10 -11 -10 -5 0 -7 5 -4 10
3 6 8 10 11 10 2 0 4 -4 4 -10z m-6 -35 c-4 -8 -8 -15 -10 -15 -2 0 -4 7 -4
15 0 8 4 15 10 15 5 0 7 -7 4 -15z m-1764 -85 c0 -5 -5 -10 -11 -10 -5 0 -7 5
-4 10 3 6 8 10 11 10 2 0 4 -4 4 -10z m1757 -42 c-2 -13 -4 -5 -4 17 -1 22 1
32 4 23 2 -10 2 -28 0 -40z m-157 15 c0 -18 -6 -23 -25 -23 -18 0 -25 5 -25
18 0 24 4 28 30 28 14 0 20 -7 20 -23z m255 -67 c2 -20 -1 -36 -6 -36 -5 0 -9
19 -9 42 0 49 10 45 15 -6z m-498 12 c-3 -8 -6 -5 -6 6 -1 11 2 17 5 13 3 -3
4 -12 1 -19z m0 -40 c-3 -8 -6 -5 -6 6 -1 11 2 17 5 13 3 -3 4 -12 1 -19z m3
-32 c0 -8 -4 -18 -10 -21 -5 -3 -10 3 -10 14 0 12 5 21 10 21 6 0 10 -6 10
-14z m400 -26 c0 -11 -4 -20 -10 -20 -5 0 -10 9 -10 20 0 11 5 20 10 20 6 0
10 -9 10 -20z m-408 -94 c-2 -42 -7 -74 -12 -71 -4 3 -6 19 -4 37 1 18 3 52 3
76 1 24 4 41 9 39 4 -3 6 -39 4 -81z m498 69 c0 -8 -4 -15 -10 -15 -5 0 -7 7
-4 15 4 8 8 15 10 15 2 0 4 -7 4 -15z m0 -45 c0 -5 -5 -10 -11 -10 -5 0 -7 5
-4 10 3 6 8 10 11 10 2 0 4 -4 4 -10z m0 -50 c0 -5 -4 -10 -10 -10 -5 0 -10 5
-10 10 0 6 5 10 10 10 6 0 10 -4 10 -10z m-103 -47 c-3 -10 -5 -2 -5 17 0 19
2 27 5 18 2 -10 2 -26 0 -35z m0 -55 c-3 -8 -6 -5 -6 6 -1 11 2 17 5 13 3 -3
4 -12 1 -19z m-405 -30 c-9 -9 -12 -7 -12 12 0 19 3 21 12 12 9 -9 9 -15 0
-24z m405 -10 c-3 -8 -6 -5 -6 6 -1 11 2 17 5 13 3 -3 4 -12 1 -19z m-406 -53
c-9 -30 -9 -30 -10 10 -1 25 2 36 9 29 6 -6 6 -21 1 -39z m486 13 c-3 -8 -6
-5 -6 6 -1 11 2 17 5 13 3 -3 4 -12 1 -19z m3 -53 c0 -19 -4 -35 -10 -35 -5 0
-10 16 -10 35 0 19 5 35 10 35 6 0 10 -16 10 -35z"/>
<path d="M3880 5450 c0 -5 5 -10 10 -10 6 0 10 5 10 10 0 6 -4 10 -10 10 -5 0
-10 -4 -10 -10z"/>
<path d="M4988 4930 c-9 -26 -28 -110 -28 -120 0 -6 5 -10 10 -10 6 0 10 13
10 29 0 15 5 42 11 59 6 17 9 37 6 44 -3 10 -6 9 -9 -2z"/>
<path d="M4912 4850 c0 -14 2 -19 5 -12 2 6 2 18 0 25 -3 6 -5 1 -5 -13z"/>
<path d="M5236 4864 c-3 -26 -6 -61 -5 -78 0 -27 1 -28 9 -10 14 35 23 134 13
134 -6 0 -13 -21 -17 -46z"/>
<path d="M5365 4838 c-3 -24 -9 -58 -12 -75 -3 -20 -1 -33 5 -33 16 0 19 9 27
83 7 75 -9 96 -20 25z"/>
<path d="M5437 4857 c-3 -8 -9 -43 -13 -77 -5 -48 -12 -65 -31 -80 -29 -23
-23 -46 8 -29 11 6 26 8 34 6 8 -4 15 5 19 25 14 68 0 198 -17 155z"/>
<path d="M5310 4616 c0 -15 7 -26 20 -29 25 -7 26 -34 1 -42 -10 -3 -21 -15
-24 -25 -4 -15 1 -22 20 -26 13 -4 30 -1 36 5 17 17 33 13 45 -11 10 -21 11
-22 11 -3 1 11 -8 35 -19 53 -11 18 -20 48 -20 67 0 33 -2 35 -35 35 -30 0
-35 -3 -35 -24z"/>
<path d="M5835 4600 c-3 -5 3 -10 15 -10 12 0 18 5 15 10 -3 6 -10 10 -15 10
-5 0 -12 -4 -15 -10z"/>
<path d="M5715 4551 c-3 -5 4 -12 15 -16 22 -7 23 -18 11 -82 -5 -24 -5 -43
-1 -43 7 0 11 15 25 108 6 40 6 42 -19 42 -13 0 -27 -4 -31 -9z"/>
<path d="M5816 4528 c-9 -36 -7 -88 4 -88 6 0 10 15 10 34 0 36 24 71 42 60 5
-3 14 -16 19 -28 8 -18 8 -17 6 9 -2 27 -6 30 -38 33 -31 3 -37 -1 -43 -20z"/>
<path d="M5955 4520 c-3 -5 -9 -32 -12 -60 -6 -49 -5 -50 21 -50 18 0 29 -7
36 -22 10 -26 10 -26 16 27 2 22 6 50 9 62 8 37 -51 74 -70 43z m53 -45 c3
-37 -11 -60 -32 -52 -16 6 -23 67 -9 81 16 15 38 0 41 -29z"/>
<path d="M6066 4498 c-9 -30 -22 -164 -18 -175 2 -8 21 -13 43 -13 33 0 39 3
39 22 0 21 -1 21 -20 3 -27 -25 -42 -9 -38 41 2 31 7 39 23 39 14 0 21 -8 23
-27 4 -37 19 -36 20 1 1 32 -11 47 -43 53 -25 4 -26 37 -2 52 14 9 21 7 31 -6
17 -23 26 -23 26 2 0 17 -7 20 -40 20 -24 0 -42 -5 -44 -12z"/>
<path d="M5881 4462 c0 -7 -11 -17 -23 -22 -18 -7 -19 -9 -5 -9 9 -1 17 -9 18
-18 0 -13 3 -11 10 6 5 14 8 32 6 40 -3 9 -5 11 -6 3z"/>
<path d="M5800 4384 c0 -12 7 -25 16 -28 24 -9 54 -7 54 4 0 6 -10 10 -21 10
-12 0 -28 8 -35 18 -12 16 -13 16 -14 -4z"/>
<path d="M5920 4361 c0 -18 33 -42 53 -39 31 5 33 28 3 28 -14 0 -26 5 -26 10
0 6 -7 10 -15 10 -8 0 -15 -4 -15 -9z"/>
<path d="M4362 4438 c3 -7 15 -15 27 -16 16 -3 22 1 19 10 -3 7 -15 15 -27 16
-16 3 -22 -1 -19 -10z"/>
<path d="M1584 3729 c-8 -14 14 -29 33 -22 7 3 13 11 13 19 0 17 -36 19 -46 3z"/>
<path d="M5227 3563 c-4 -3 -7 -13 -7 -22 1 -13 3 -13 11 2 11 19 8 33 -4 20z"/>
<path d="M3665 2460 c-3 -5 -1 -10 4 -10 6 0 11 5 11 10 0 6 -2 10 -4 10 -3 0
-8 -4 -11 -10z"/>
<path d="M3705 2450 c3 -5 10 -10 16 -10 5 0 9 5 9 10 0 6 -7 10 -16 10 -8 0
-12 -4 -9 -10z"/>
<path d="M4791 8723 c-1 -8 -17 -13 -43 -13 -32 0 -39 -3 -28 -10 32 -20 87
-5 77 21 -4 10 -6 10 -6 2z"/>
<path d="M4409 8648 c-4 -14 -6 -60 -2 -50 9 23 33 13 33 -14 0 -31 23 -28 28
4 2 14 -2 22 -11 22 -8 0 -17 9 -20 20 -4 16 -25 29 -28 18z"/>
<path d="M4376 8554 c-11 -8 -16 -14 -10 -14 13 0 39 18 34 24 -3 2 -14 -2
-24 -10z"/>
<path d="M4436 8535 c4 -8 8 -15 10 -15 2 0 4 7 4 15 0 8 -4 15 -10 15 -5 0
-7 -7 -4 -15z"/>
<path d="M4416 8491 c-4 -7 -5 -15 -2 -18 9 -9 19 4 14 18 -4 11 -6 11 -12 0z"/>
<path d="M4438 8303 c7 -3 16 -2 19 1 4 3 -2 6 -13 5 -11 0 -14 -3 -6 -6z"/>
<path d="M3578 6953 c7 -3 16 -2 19 1 4 3 -2 6 -13 5 -11 0 -14 -3 -6 -6z"/>
<path d="M3600 6920 c0 -5 7 -10 15 -10 8 0 15 5 15 10 0 6 -7 10 -15 10 -8 0
-15 -4 -15 -10z"/>
<path d="M6798 6733 c6 -2 18 -2 25 0 6 3 1 5 -13 5 -14 0 -19 -2 -12 -5z"/>
<path d="M2850 6610 c0 -5 5 -10 11 -10 5 0 7 5 4 10 -3 6 -8 10 -11 10 -2 0
-4 -4 -4 -10z"/>
<path d="M4630 6607 c0 -8 11 -19 25 -25 14 -6 25 -8 25 -3 0 5 -11 16 -25 25
-20 13 -25 14 -25 3z"/>
<path d="M4875 6470 c3 -5 8 -10 11 -10 2 0 4 5 4 10 0 6 -5 10 -11 10 -5 0
-7 -4 -4 -10z"/>
<path d="M7219 6412 c22 -21 53 -45 68 -53 15 -8 44 -31 65 -51 39 -38 58 -47
58 -28 0 6 -3 10 -8 10 -4 0 -23 14 -42 32 -56 51 -158 128 -170 128 -6 0 7
-17 29 -38z"/>
<path d="M4777 6434 c-9 -10 4 -34 19 -34 8 0 14 4 14 9 0 12 -26 32 -33 25z"/>
<path d="M7300 6429 c0 -6 17 -25 37 -42 20 -18 57 -51 81 -74 46 -45 50 -47
76 -37 22 8 20 24 -2 24 -10 0 -36 18 -58 41 -37 38 -116 99 -128 99 -3 0 -6
-5 -6 -11z"/>
<path d="M7520 6229 c0 -7 10 -9 25 -5 14 4 25 2 25 -3 0 -5 9 -11 21 -14 15
-4 19 -2 15 10 -3 8 -6 17 -6 19 0 2 -18 4 -40 4 -23 0 -40 -5 -40 -11z"/>
<path d="M7655 1260 c3 -5 10 -10 16 -10 5 0 9 5 9 10 0 6 -7 10 -16 10 -8 0
-12 -4 -9 -10z"/>
</g>
</svg>
