<?xml version="1.0" standalone="no"?><svg xmlns="http://www.w3.org/2000/svg" viewBox="0 0 1440 320"><path fill="#3f3d40" fill-opacity="0.5" d="M0,320L24,288C48,256,96,192,144,181.3C192,171,240,213,288,192C336,171,384,85,432,64C480,43,528,85,576,122.7C624,160,672,192,720,192C768,192,816,160,864,133.3C912,107,960,85,1008,96C1056,107,1104,149,1152,138.7C1200,128,1248,64,1296,53.3C1344,43,1392,85,1416,106.7L1440,128L1440,320L1416,320C1392,320,1344,320,1296,320C1248,320,1200,320,1152,320C1104,320,1056,320,1008,320C960,320,912,320,864,320C816,320,768,320,720,320C672,320,624,320,576,320C528,320,480,320,432,320C384,320,336,320,288,320C240,320,192,320,144,320C96,320,48,320,24,320L0,320Z"></path></svg>